<svg width="80" height="80" viewBox="0 0 80 80" fill="none" xmlns="http://www.w3.org/2000/svg">
<g clip-path="url(#clip0)">
<path d="M51.9128 12.6762C54.461 9.59631 56.2517 5.41334 56.1619 1.15271C56.1467 0.437246 55.4941 -0.094004 54.7866 0.0139648C51.048 0.585215 46.8688 2.92662 44.2819 5.95521C41.8977 8.71193 39.7817 12.996 39.9408 17.2412C39.9647 17.8808 40.5052 18.3907 41.145 18.3726C45.2714 18.2558 49.3453 15.7849 51.9128 12.6762Z" fill="#C2C5C8"/>
<path d="M43.1606 17.2411C42.9139 10.6597 47.8793 2.9725 55.939 0.494222C55.6861 0.146409 55.2487 -0.0565597 54.7868 0.0139091C51.0483 0.585159 46.869 2.92657 44.2822 5.95516C41.8979 8.71188 39.7818 12.9961 39.9411 17.2411C39.965 17.8808 40.5054 18.3906 41.1453 18.3725C41.9454 18.3498 42.7434 18.2378 43.5289 18.0506C43.3125 17.8456 43.1725 17.5595 43.1606 17.2411Z" fill="#C2C2C4"/>
<path d="M71.8289 58.235C69.2384 56.9308 62.0894 52.43 62.0009 42.4484C61.9253 34.2777 67.3472 29.5266 69.6536 27.8677C70.2011 27.4738 70.3214 26.703 69.9052 26.1722C67.9888 23.7292 65.748 22.1622 63.5955 21.1464C63.5967 21.1463 63.5983 21.1459 63.5995 21.1458C63.3208 21.0141 62.8434 20.805 62.4614 20.6545C51.6302 16.3909 44.8042 22.9261 40.6694 22.9261C37.5036 22.9261 32.6184 19.3491 27.4425 19.4467C20.6411 19.5455 14.3764 23.4033 10.8691 29.4908C5.48813 38.8305 7.26266 51.598 11.455 61.5483C11.455 61.5484 11.4548 61.5484 11.4548 61.5486C11.5622 61.8031 11.7331 62.1992 11.8756 62.5191C11.8758 62.5188 11.8758 62.5186 11.8759 62.5183C13.0905 65.2458 14.4809 67.7383 15.9458 69.857C19.3094 74.7188 23.322 80.1956 28.5944 79.9944C33.6689 79.7931 35.5874 76.7134 41.7199 76.7134C47.8484 76.7134 49.5772 79.9944 54.9428 79.8967C60.4049 79.7931 63.8636 74.9353 67.2042 70.0505C70.1444 65.7583 71.7664 61.5689 72.4164 59.6828C72.6102 59.1206 72.3603 58.5025 71.8289 58.235Z" fill="#C2C5C8"/>
<path d="M19.1652 69.857C17.7003 67.7382 16.3099 65.2457 15.0953 62.5182C15.0952 62.5184 15.0952 62.5187 15.095 62.519C14.9527 62.1993 14.7831 61.8065 14.6742 61.5485C14.6742 61.5485 14.6744 61.5484 14.6744 61.5482C10.5078 51.6595 8.68829 38.8634 14.0884 29.4907C17.3277 23.8689 22.9189 20.1512 29.1125 19.5373C28.5603 19.4709 28.0033 19.4362 27.4425 19.4467C20.6411 19.5454 14.3764 23.4032 10.8691 29.4907C5.48813 38.8304 7.26266 51.5979 11.455 61.5482C11.455 61.5484 11.4548 61.5485 11.4548 61.5485C11.5622 61.8031 11.7331 62.1992 11.8756 62.519C11.8758 62.5187 11.8759 62.5185 11.8759 62.5182C13.0905 65.2457 14.4809 67.7382 15.9456 69.857C19.3092 74.7187 23.3219 80.1956 28.5942 79.9943C29.113 79.9737 29.5973 79.9218 30.058 79.8474C25.6348 78.9504 22.1448 74.1639 19.1652 69.857Z" fill="#C2C2C4"/>
</g>
<defs>
<clipPath id="clip0">
<rect width="80" height="80" fill="white"/>
</clipPath>
</defs>
</svg>
