<svg width="178" height="52" viewBox="0 0 178 52" fill="none" xmlns="http://www.w3.org/2000/svg">
<path d="M178 46.0029C178 48.774 175.709 51.0187 172.874 51.0187H5.13243C2.2995 51.0187 0 48.774 0 46.0029V6.00333C0 3.23349 2.2995 0.980957 5.13243 0.980957H172.873C175.709 0.980957 177.999 3.23349 177.999 6.00333L178 46.0029Z" fill="black"/>
<path d="M39.1707 25.7191C39.132 21.5292 42.6894 19.4908 42.852 19.3959C40.8374 16.532 37.7147 16.1407 36.6174 16.1095C33.9947 15.8404 31.4507 17.6396 30.1147 17.6396C28.752 17.6396 26.6947 16.1355 24.4774 16.1797C21.624 16.2226 18.9547 17.8333 17.4907 20.3345C14.4694 25.4344 16.7227 32.9289 19.6174 37.0512C21.0654 39.0701 22.7574 41.3243 24.972 41.245C27.1387 41.1579 27.948 39.8982 30.5627 39.8982C33.1534 39.8982 33.9134 41.245 36.172 41.1943C38.4974 41.1579 39.9614 39.1663 41.3587 37.1292C43.032 34.8152 43.704 32.5363 43.7307 32.4193C43.676 32.4011 39.2147 30.741 39.1707 25.7191Z" fill="white"/>
<path d="M34.904 13.3977C36.0694 11.9768 36.8667 10.0437 36.6454 8.08203C34.9587 8.15483 32.8494 9.21953 31.6347 10.6092C30.56 11.8338 29.6 13.841 29.848 15.7286C31.7427 15.8664 33.688 14.7965 34.904 13.3977Z" fill="white"/>
<path d="M70.5266 40.9547H67.4986L65.84 35.873H60.0746L58.4946 40.9547H55.5466L61.2586 23.6543H64.7866L70.5266 40.9547ZM65.34 33.741L63.84 29.2235C63.6813 28.762 63.384 27.6752 62.9453 25.9644H62.892C62.7173 26.7002 62.436 27.787 62.0493 29.2235L60.576 33.741H65.34Z" fill="white"/>
<path d="M85.2159 34.5642C85.2159 36.6858 84.6279 38.3628 83.4519 39.5939C82.3985 40.6898 81.0905 41.2371 79.5292 41.2371C77.8439 41.2371 76.6332 40.6469 75.8959 39.4665H75.8425V46.038H72.9999V32.5869C72.9999 31.2531 72.9639 29.8842 72.8945 28.4802H75.3945L75.5532 30.4575H75.6065C76.5545 28.9677 77.9932 28.2241 79.9239 28.2241C81.4332 28.2241 82.6932 28.8052 83.7012 29.9687C84.7119 31.1335 85.2159 32.6649 85.2159 34.5642ZM82.3199 34.6656C82.3199 33.4514 82.0399 32.4504 81.4772 31.6626C80.8625 30.841 80.0372 30.4302 79.0025 30.4302C78.3012 30.4302 77.6639 30.659 77.0945 31.1101C76.5239 31.5651 76.1505 32.1592 75.9759 32.895C75.8879 33.2382 75.8439 33.519 75.8439 33.74V35.82C75.8439 36.7274 76.1292 37.4931 76.6999 38.1184C77.2705 38.7437 78.0119 39.0557 78.9239 39.0557C79.9945 39.0557 80.8279 38.6527 81.4239 37.8493C82.0212 37.0446 82.3199 35.9838 82.3199 34.6656Z" fill="white"/>
<path d="M99.9321 34.5642C99.9321 36.6858 99.3441 38.3628 98.1667 39.5939C97.1147 40.6898 95.8067 41.2371 94.2454 41.2371C92.5601 41.2371 91.3494 40.6469 90.6134 39.4665H90.5601V46.038H87.7174V32.5869C87.7174 31.2531 87.6814 29.8842 87.6121 28.4802H90.1121L90.2707 30.4575H90.3241C91.2707 28.9677 92.7094 28.2241 94.6414 28.2241C96.1494 28.2241 97.4094 28.8052 98.4201 29.9687C99.4267 31.1335 99.9321 32.6649 99.9321 34.5642ZM97.0361 34.6656C97.0361 33.4514 96.7547 32.4504 96.1921 31.6626C95.5774 30.841 94.7547 30.4302 93.7187 30.4302C93.0161 30.4302 92.3801 30.659 91.8094 31.1101C91.2387 31.5651 90.8667 32.1592 90.6921 32.895C90.6054 33.2382 90.5601 33.519 90.5601 33.74V35.82C90.5601 36.7274 90.8454 37.4931 91.4134 38.1184C91.9841 38.7424 92.7254 39.0557 93.6401 39.0557C94.7107 39.0557 95.5441 38.6527 96.1401 37.8493C96.7374 37.0446 97.0361 35.9838 97.0361 34.6656Z" fill="white"/>
<path d="M116.385 36.1032C116.385 37.5748 115.861 38.7721 114.809 39.6964C113.653 40.7065 112.044 41.2109 109.976 41.2109C108.067 41.2109 106.536 40.8521 105.377 40.1332L106.036 37.8231C107.284 38.5589 108.653 38.9281 110.145 38.9281C111.216 38.9281 112.049 38.6915 112.648 38.2209C113.244 37.7503 113.541 37.1185 113.541 36.3307C113.541 35.6287 113.296 35.0372 112.804 34.5575C112.315 34.0778 111.497 33.6319 110.356 33.2198C107.249 32.0901 105.697 30.4352 105.697 28.259C105.697 26.8368 106.241 25.6707 107.331 24.7633C108.416 23.8546 109.864 23.4009 111.675 23.4009C113.289 23.4009 114.631 23.6752 115.701 24.2225L114.991 26.4819C113.991 25.9515 112.86 25.6863 111.595 25.6863C110.595 25.6863 109.813 25.9268 109.253 26.4052C108.78 26.8329 108.543 27.3542 108.543 27.9717C108.543 28.6555 108.813 29.221 109.357 29.6656C109.831 30.0764 110.691 30.521 111.939 31.0007C113.465 31.6 114.587 32.3007 115.308 33.1041C116.027 33.9049 116.385 34.9072 116.385 36.1032Z" fill="white"/>
<path d="M125.784 30.5599H122.651V36.6166C122.651 38.1571 123.203 38.9267 124.309 38.9267C124.817 38.9267 125.239 38.8838 125.572 38.798L125.651 40.9027C125.091 41.1068 124.353 41.2095 123.44 41.2095C122.317 41.2095 121.44 40.8754 120.807 40.2085C120.176 39.5403 119.859 38.4197 119.859 36.8454V30.5573H117.992V28.4773H119.859V26.1932L122.651 25.3716V28.4773H125.784V30.5599Z" fill="white"/>
<path d="M139.921 34.6146C139.921 36.5321 139.358 38.1064 138.236 39.3375C137.058 40.605 135.496 41.2368 133.548 41.2368C131.67 41.2368 130.176 40.6297 129.061 39.4155C127.946 38.2013 127.389 36.6686 127.389 34.8213C127.389 32.8882 127.962 31.3048 129.113 30.0737C130.261 28.8413 131.81 28.2251 133.758 28.2251C135.636 28.2251 137.146 28.8322 138.286 30.0477C139.377 31.2268 139.921 32.7491 139.921 34.6146ZM136.972 34.7043C136.972 33.5538 136.72 32.5671 136.209 31.7442C135.613 30.7484 134.761 30.2518 133.657 30.2518C132.514 30.2518 131.646 30.7497 131.05 31.7442C130.54 32.5684 130.288 33.5707 130.288 34.7563C130.288 35.9068 130.54 36.8935 131.05 37.7151C131.665 38.7109 132.524 39.2075 133.632 39.2075C134.717 39.2075 135.569 38.7005 136.184 37.6891C136.708 36.8506 136.972 35.8535 136.972 34.7043Z" fill="white"/>
<path d="M149.161 30.9177C148.88 30.867 148.58 30.841 148.265 30.841C147.265 30.841 146.492 31.2089 145.948 31.946C145.475 32.596 145.237 33.4176 145.237 34.4095V40.955H142.396L142.423 32.4088C142.423 30.971 142.387 29.6619 142.316 28.4815H144.792L144.896 30.8683H144.975C145.275 30.048 145.748 29.3876 146.396 28.8923C147.029 28.4464 147.713 28.2241 148.451 28.2241C148.713 28.2241 148.951 28.2423 149.161 28.2748V30.9177Z" fill="white"/>
<path d="M161.875 34.1274C161.875 34.624 161.841 35.0426 161.771 35.3845H153.243C153.276 36.6169 153.688 37.5594 154.48 38.2094C155.199 38.7905 156.128 39.0817 157.269 39.0817C158.532 39.0817 159.684 38.8854 160.72 38.4915L161.165 40.4155C159.955 40.9303 158.525 41.1864 156.876 41.1864C154.892 41.1864 153.335 40.617 152.201 39.4795C151.071 38.342 150.504 36.8145 150.504 34.8983C150.504 33.0172 151.031 31.4507 152.085 30.2014C153.189 28.8676 154.681 28.2007 156.559 28.2007C158.403 28.2007 159.799 28.8676 160.747 30.2014C161.497 31.2609 161.875 32.5713 161.875 34.1274ZM159.164 33.4085C159.183 32.5869 158.997 31.8771 158.612 31.2778C158.12 30.5069 157.364 30.1221 156.347 30.1221C155.417 30.1221 154.661 30.4978 154.084 31.2518C153.611 31.8511 153.329 32.57 153.243 33.4072H159.164V33.4085Z" fill="white"/>
<path d="M64.4 13.0113C64.4 14.5414 63.9293 15.6932 62.9893 16.4667C62.1186 17.1804 60.8813 17.5379 59.2786 17.5379C58.484 17.5379 57.804 17.5041 57.2346 17.4365V9.07621C57.9773 8.95921 58.7773 8.89941 59.6413 8.89941C61.168 8.89941 62.3186 9.22311 63.0946 9.87051C63.964 10.6024 64.4 11.6489 64.4 13.0113ZM62.9266 13.049C62.9266 12.0571 62.6573 11.2966 62.1186 10.7662C61.58 10.2371 60.7933 9.97191 59.7573 9.97191C59.3173 9.97191 58.9426 10.0005 58.632 10.0603V16.416C58.804 16.442 59.1186 16.4537 59.576 16.4537C60.6453 16.4537 61.4706 16.1638 62.052 15.584C62.6333 15.0042 62.9266 14.1592 62.9266 13.049Z" fill="white"/>
<path d="M72.2119 14.3477C72.2119 15.2902 71.9359 16.0624 71.3839 16.6682C70.8052 17.2909 70.0386 17.6016 69.0812 17.6016C68.1586 17.6016 67.4239 17.3039 66.8759 16.7059C66.3292 16.1092 66.0559 15.3565 66.0559 14.4491C66.0559 13.5001 66.3372 12.7214 66.9026 12.1169C67.4679 11.5124 68.2279 11.2095 69.1852 11.2095C70.1079 11.2095 70.8492 11.5072 71.4106 12.1039C71.9439 12.6837 72.2119 13.4325 72.2119 14.3477ZM70.7626 14.3919C70.7626 13.8264 70.6372 13.3415 70.3879 12.9372C70.0946 12.4484 69.6772 12.204 69.1346 12.204C68.5732 12.204 68.1466 12.4484 67.8532 12.9372C67.6026 13.3415 67.4786 13.8342 67.4786 14.4166C67.4786 14.9821 67.6039 15.467 67.8532 15.8713C68.1559 16.3601 68.5772 16.6045 69.1212 16.6045C69.6546 16.6045 70.0732 16.3562 70.3746 15.8583C70.6332 15.4462 70.7626 14.9574 70.7626 14.3919Z" fill="white"/>
<path d="M82.6867 11.3345L80.7201 17.4627H79.4401L78.6254 14.8016C78.4187 14.1373 78.2507 13.4769 78.1201 12.8217H78.0947C77.9734 13.4951 77.8054 14.1542 77.5894 14.8016L76.7241 17.4627H75.4294L73.5801 11.3345H75.0161L75.7267 14.2478C75.8987 14.9368 76.0401 15.5933 76.1534 16.2147H76.1787C76.2827 15.7025 76.4547 15.0499 76.6974 14.2608L77.5894 11.3358H78.7281L79.5827 14.1984C79.7894 14.8965 79.9574 15.5686 80.0867 16.216H80.1254C80.2201 15.5855 80.3627 14.9134 80.5521 14.1984L81.3147 11.3358H82.6867V11.3345Z" fill="white"/>
<path d="M89.9307 17.4625H88.5334V13.9525C88.5334 12.8709 88.112 12.3301 87.2667 12.3301C86.852 12.3301 86.5174 12.4783 86.2574 12.776C86 13.0737 85.8694 13.4247 85.8694 13.8264V17.4612H84.472V13.0854C84.472 12.5472 84.4547 11.9635 84.4214 11.3317H85.6494L85.7147 12.2898H85.7534C85.9161 11.9921 86.1587 11.7464 86.4774 11.5501C86.856 11.3213 87.28 11.2056 87.744 11.2056C88.3307 11.2056 88.8187 11.3902 89.2067 11.7607C89.6894 12.2144 89.9307 12.8917 89.9307 13.7913V17.4625Z" fill="white"/>
<path d="M93.7839 17.4626H92.3879V8.52246H93.7839V17.4626Z" fill="white"/>
<path d="M102.011 14.3477C102.011 15.2902 101.735 16.0624 101.183 16.6682C100.604 17.2909 99.8361 17.6016 98.8801 17.6016C97.9561 17.6016 97.2214 17.3039 96.6747 16.7059C96.1281 16.1092 95.8547 15.3565 95.8547 14.4491C95.8547 13.5001 96.1361 12.7214 96.7014 12.1169C97.2667 11.5124 98.0267 11.2095 98.9827 11.2095C99.9067 11.2095 100.647 11.5072 101.209 12.1039C101.743 12.6837 102.011 13.4325 102.011 14.3477ZM100.56 14.3919C100.56 13.8264 100.435 13.3415 100.185 12.9372C99.8934 12.4484 99.4747 12.204 98.9334 12.204C98.3707 12.204 97.9441 12.4484 97.6521 12.9372C97.4014 13.3415 97.2774 13.8342 97.2774 14.4166C97.2774 14.9821 97.4027 15.467 97.6521 15.8713C97.9547 16.3601 98.3761 16.6045 98.9201 16.6045C99.4534 16.6045 99.8707 16.3562 100.172 15.8583C100.432 15.4462 100.56 14.9574 100.56 14.3919Z" fill="white"/>
<path d="M108.773 17.4625H107.519L107.415 16.7566H107.376C106.947 17.3195 106.335 17.6016 105.54 17.6016C104.947 17.6016 104.467 17.4157 104.105 17.0465C103.777 16.7111 103.613 16.2938 103.613 15.7985C103.613 15.0497 103.933 14.479 104.577 14.0838C105.22 13.6886 106.124 13.4949 107.288 13.504V13.3896C107.288 12.5823 106.853 12.1793 105.983 12.1793C105.363 12.1793 104.816 12.3314 104.344 12.633L104.06 11.7386C104.644 11.3863 105.365 11.2095 106.216 11.2095C107.859 11.2095 108.683 12.0545 108.683 13.7445V16.0013C108.683 16.6136 108.713 17.1011 108.773 17.4625ZM107.323 15.3565V14.4114C105.781 14.3854 105.011 14.7975 105.011 15.6464C105.011 15.9662 105.099 16.2054 105.279 16.3653C105.459 16.5252 105.688 16.6045 105.961 16.6045C106.268 16.6045 106.555 16.5096 106.816 16.3211C107.079 16.1313 107.24 15.8908 107.3 15.5957C107.315 15.5294 107.323 15.4488 107.323 15.3565Z" fill="white"/>
<path d="M116.713 17.4626H115.473L115.408 16.4785H115.369C114.973 17.2273 114.299 17.6017 113.351 17.6017C112.593 17.6017 111.963 17.3118 111.463 16.732C110.963 16.1522 110.713 15.3995 110.713 14.4752C110.713 13.4833 110.984 12.6799 111.528 12.0663C112.055 11.4943 112.7 11.2083 113.468 11.2083C114.312 11.2083 114.903 11.4852 115.239 12.0403H115.265V8.52246H116.664V15.8116C116.664 16.4083 116.68 16.9582 116.713 17.4626ZM115.265 14.8782V13.8564C115.265 13.6796 115.252 13.5366 115.227 13.4274C115.148 13.0998 114.979 12.8242 114.721 12.6019C114.461 12.3796 114.148 12.2678 113.787 12.2678C113.265 12.2678 112.857 12.4693 112.557 12.8736C112.26 13.2779 112.109 13.794 112.109 14.4245C112.109 15.0303 112.252 15.5217 112.539 15.9C112.841 16.303 113.249 16.5045 113.76 16.5045C114.219 16.5045 114.585 16.3368 114.864 16.0001C115.133 15.6894 115.265 15.315 115.265 14.8782Z" fill="white"/>
<path d="M128.664 14.3477C128.664 15.2902 128.388 16.0624 127.836 16.6682C127.257 17.2909 126.492 17.6016 125.533 17.6016C124.612 17.6016 123.877 17.3039 123.328 16.7059C122.781 16.1092 122.508 15.3565 122.508 14.4491C122.508 13.5001 122.789 12.7214 123.355 12.1169C123.92 11.5124 124.68 11.2095 125.639 11.2095C126.56 11.2095 127.303 11.5072 127.863 12.1039C128.396 12.6837 128.664 13.4325 128.664 14.3477ZM127.216 14.3919C127.216 13.8264 127.091 13.3415 126.841 12.9372C126.547 12.4484 126.131 12.204 125.587 12.204C125.027 12.204 124.6 12.4484 124.305 12.9372C124.055 13.3415 123.931 13.8342 123.931 14.4166C123.931 14.9821 124.056 15.467 124.305 15.8713C124.608 16.3601 125.029 16.6045 125.573 16.6045C126.107 16.6045 126.527 16.3562 126.828 15.8583C127.085 15.4462 127.216 14.9574 127.216 14.3919Z" fill="white"/>
<path d="M136.177 17.4625H134.781V13.9525C134.781 12.8709 134.36 12.3301 133.513 12.3301C133.099 12.3301 132.764 12.4783 132.505 12.776C132.247 13.0737 132.117 13.4247 132.117 13.8264V17.4612H130.719V13.0854C130.719 12.5472 130.703 11.9635 130.669 11.3317H131.896L131.961 12.2898H132C132.164 11.9921 132.407 11.7464 132.724 11.5501C133.104 11.3213 133.527 11.2056 133.992 11.2056C134.577 11.2056 135.065 11.3902 135.453 11.7607C135.937 12.2144 136.177 12.8917 136.177 13.7913V17.4625Z" fill="white"/>
<path d="M145.581 12.3548H144.043V15.3318C144.043 16.0884 144.316 16.4667 144.857 16.4667C145.108 16.4667 145.316 16.4459 145.48 16.403L145.516 17.4365C145.24 17.5379 144.877 17.5886 144.431 17.5886C143.879 17.5886 143.449 17.4248 143.139 17.0972C142.827 16.7696 142.672 16.2184 142.672 15.4449V12.3548H141.753V11.3343H142.672V10.2111L144.041 9.80811V11.333H145.58V12.3548H145.581Z" fill="white"/>
<path d="M152.979 17.4626H151.58V13.9786C151.58 12.8801 151.159 12.3302 150.315 12.3302C149.667 12.3302 149.224 12.6487 148.981 13.2857C148.94 13.4196 148.916 13.5834 148.916 13.7758V17.4613H147.52V8.52246H148.916V12.2158H148.943C149.383 11.5437 150.013 11.2083 150.831 11.2083C151.409 11.2083 151.888 11.3929 152.268 11.7634C152.741 12.2249 152.979 12.9113 152.979 13.8187V17.4626Z" fill="white"/>
<path d="M160.609 14.1085C160.609 14.3529 160.591 14.5583 160.557 14.726H156.367C156.385 15.3318 156.585 15.7933 156.973 16.1131C157.328 16.3991 157.785 16.5421 158.345 16.5421C158.965 16.5421 159.531 16.4459 160.04 16.2522L160.259 17.1986C159.663 17.4508 158.961 17.5769 158.149 17.5769C157.176 17.5769 156.409 17.2974 155.855 16.7384C155.297 16.1794 155.021 15.4293 155.021 14.4881C155.021 13.5638 155.279 12.7942 155.797 12.1806C156.339 11.5254 157.071 11.1978 157.995 11.1978C158.899 11.1978 159.585 11.5254 160.049 12.1806C160.424 12.7006 160.609 13.3441 160.609 14.1085ZM159.276 13.7562C159.287 13.3519 159.195 13.0035 159.005 12.7097C158.763 12.3314 158.393 12.1416 157.893 12.1416C157.437 12.1416 157.065 12.3262 156.781 12.6967C156.549 12.9918 156.412 13.3441 156.367 13.7562H159.276Z" fill="white"/>
</svg>
