<svg width="228" height="201" viewBox="0 0 228 201" fill="none" xmlns="http://www.w3.org/2000/svg">
<path d="M97.2913 25.3991C105.193 13.3881 122.807 13.3881 130.709 25.3991L192.339 119.084C201.088 132.383 191.549 150.076 175.63 150.076H52.3697C36.4512 150.076 26.9123 132.383 35.6609 119.084L97.2913 25.3991Z" fill="url(#paint0_linear)"/>
<path d="M93.7423 86.5659C93.7423 85.9618 93.521 85.4826 93.0782 85.1284C92.6407 84.769 92.0236 84.5894 91.2267 84.5894C90.56 84.5894 90.0001 84.7743 89.547 85.144C89.0991 85.5086 88.8751 85.9618 88.8751 86.5034H87.3751C87.3751 85.8993 87.5392 85.3576 87.8673 84.8784C88.2006 84.3993 88.6642 84.0269 89.2579 83.7612C89.8517 83.4904 90.5079 83.355 91.2267 83.355C92.4975 83.355 93.4845 83.6414 94.1876 84.2144C94.8907 84.7821 95.2423 85.5737 95.2423 86.5894C95.2423 87.1154 95.0808 87.5946 94.7579 88.0269C94.435 88.4591 93.9845 88.8003 93.4064 89.0503C94.7449 89.4982 95.4142 90.3862 95.4142 91.7144C95.4142 92.7352 95.034 93.5451 94.2736 94.144C93.5131 94.743 92.4975 95.0425 91.2267 95.0425C90.4715 95.0425 89.784 94.9097 89.1642 94.644C88.5496 94.3732 88.0704 93.9904 87.7267 93.4956C87.3829 93.0008 87.2111 92.4123 87.2111 91.73H88.7111C88.7111 92.3289 88.948 92.8289 89.422 93.23C89.896 93.6258 90.4975 93.8237 91.2267 93.8237C92.0444 93.8237 92.6954 93.6336 93.1798 93.2534C93.6694 92.8732 93.9142 92.3706 93.9142 91.7456C93.9142 90.4123 93.0887 89.7326 91.4376 89.7065H90.0314V88.4722H91.4298C92.1902 88.4565 92.7657 88.2847 93.1564 87.9565C93.547 87.6284 93.7423 87.1649 93.7423 86.5659ZM102.399 94.8862C102.315 94.7196 102.248 94.4227 102.195 93.9956C101.524 94.6935 100.721 95.0425 99.7892 95.0425C98.9558 95.0425 98.271 94.8081 97.7345 94.3394C97.2032 93.8654 96.9376 93.2664 96.9376 92.5425C96.9376 91.6623 97.271 90.98 97.9376 90.4956C98.6095 90.006 99.5522 89.7612 100.766 89.7612H102.172V89.0972C102.172 88.592 102.021 88.1909 101.719 87.894C101.417 87.592 100.971 87.4409 100.383 87.4409C99.8673 87.4409 99.435 87.5711 99.0861 87.8315C98.7371 88.092 98.5626 88.4071 98.5626 88.7769H97.1095C97.1095 88.355 97.2579 87.9487 97.5548 87.5581C97.8569 87.1623 98.2631 86.8498 98.7736 86.6206C99.2892 86.3914 99.8543 86.2769 100.469 86.2769C101.443 86.2769 102.206 86.5216 102.758 87.0112C103.31 87.4956 103.596 88.1649 103.617 89.019V92.9097C103.617 93.6857 103.716 94.3029 103.914 94.7612V94.8862H102.399ZM100 93.7847C100.453 93.7847 100.883 93.6675 101.289 93.4331C101.695 93.1987 101.99 92.894 102.172 92.519V90.7847H101.039C99.2683 90.7847 98.3829 91.3029 98.3829 92.3394C98.3829 92.7925 98.534 93.1466 98.8361 93.4019C99.1381 93.6571 99.5262 93.7847 100 93.7847ZM112.789 94.8862H111.344V91.2769H107.461V94.8862H106.008V86.4331H107.461V90.0972H111.344V86.4331H112.789V94.8862ZM114.734 90.5815C114.734 89.7534 114.896 89.0086 115.219 88.3472C115.547 87.6857 116 87.1753 116.578 86.8159C117.162 86.4565 117.826 86.2769 118.57 86.2769C119.721 86.2769 120.651 86.6753 121.359 87.4722C122.073 88.269 122.43 89.3289 122.43 90.6519V90.7534C122.43 91.5763 122.271 92.3159 121.953 92.9722C121.641 93.6232 121.19 94.131 120.602 94.4956C120.018 94.8602 119.346 95.0425 118.586 95.0425C117.44 95.0425 116.511 94.644 115.797 93.8472C115.089 93.0503 114.734 91.9956 114.734 90.6831V90.5815ZM116.188 90.7534C116.188 91.6909 116.404 92.4435 116.836 93.0112C117.274 93.5789 117.857 93.8628 118.586 93.8628C119.32 93.8628 119.904 93.5763 120.336 93.0034C120.768 92.4253 120.984 91.618 120.984 90.5815C120.984 89.6545 120.763 88.9045 120.32 88.3315C119.883 87.7534 119.3 87.4644 118.57 87.4644C117.857 87.4644 117.281 87.7482 116.844 88.3159C116.406 88.8836 116.188 89.6961 116.188 90.7534ZM124.375 94.8862V86.4331H127.672C128.797 86.4331 129.659 86.631 130.258 87.0269C130.862 87.4175 131.164 87.993 131.164 88.7534C131.164 89.144 131.047 89.4982 130.813 89.8159C130.578 90.1284 130.232 90.368 129.774 90.5347C130.284 90.6545 130.693 90.8888 131 91.2378C131.313 91.5868 131.469 92.0034 131.469 92.4878C131.469 93.2638 131.182 93.8576 130.609 94.269C130.042 94.6805 129.237 94.8862 128.195 94.8862H124.375ZM125.82 91.1753V93.7222H128.211C128.815 93.7222 129.266 93.6102 129.563 93.3862C129.865 93.1623 130.016 92.8472 130.016 92.4409C130.016 91.5972 129.396 91.1753 128.156 91.1753H125.82ZM125.82 90.019H127.688C129.042 90.019 129.719 89.6232 129.719 88.8315C129.719 88.0399 129.078 87.631 127.797 87.605H125.82V90.019ZM133 90.5815C133 89.7534 133.162 89.0086 133.484 88.3472C133.813 87.6857 134.266 87.1753 134.844 86.8159C135.427 86.4565 136.091 86.2769 136.836 86.2769C137.987 86.2769 138.917 86.6753 139.625 87.4722C140.339 88.269 140.695 89.3289 140.695 90.6519V90.7534C140.695 91.5763 140.537 92.3159 140.219 92.9722C139.906 93.6232 139.456 94.131 138.867 94.4956C138.284 94.8602 137.612 95.0425 136.852 95.0425C135.706 95.0425 134.776 94.644 134.063 93.8472C133.354 93.0503 133 91.9956 133 90.6831V90.5815ZM134.453 90.7534C134.453 91.6909 134.669 92.4435 135.102 93.0112C135.539 93.5789 136.123 93.8628 136.852 93.8628C137.586 93.8628 138.169 93.5763 138.602 93.0034C139.034 92.4253 139.25 91.618 139.25 90.5815C139.25 89.6545 139.029 88.9045 138.586 88.3315C138.149 87.7534 137.565 87.4644 136.836 87.4644C136.123 87.4644 135.547 87.7482 135.109 88.3159C134.672 88.8836 134.453 89.6961 134.453 90.7534ZM58.0939 115.886V107.433H61.3907C62.5157 107.433 63.3777 107.631 63.9767 108.027C64.5808 108.417 64.8829 108.993 64.8829 109.753C64.8829 110.144 64.7657 110.498 64.5314 110.816C64.297 111.128 63.9506 111.368 63.4923 111.535C64.0027 111.654 64.4116 111.889 64.7189 112.238C65.0314 112.587 65.1876 113.003 65.1876 113.488C65.1876 114.264 64.9012 114.858 64.3282 115.269C63.7605 115.681 62.9558 115.886 61.9142 115.886H58.0939ZM59.5392 112.175V114.722H61.9298C62.534 114.722 62.9845 114.61 63.2814 114.386C63.5835 114.162 63.7345 113.847 63.7345 113.441C63.7345 112.597 63.1147 112.175 61.8751 112.175H59.5392ZM59.5392 111.019H61.4064C62.7605 111.019 63.4376 110.623 63.4376 109.832C63.4376 109.04 62.797 108.631 61.5157 108.605H59.5392V111.019ZM66.7189 111.582C66.7189 110.753 66.8803 110.009 67.2032 109.347C67.5314 108.686 67.9845 108.175 68.5626 107.816C69.146 107.457 69.81 107.277 70.5548 107.277C71.7058 107.277 72.6355 107.675 73.3439 108.472C74.0574 109.269 74.4142 110.329 74.4142 111.652V111.753C74.4142 112.576 74.2553 113.316 73.9376 113.972C73.6251 114.623 73.1746 115.131 72.5861 115.496C72.0027 115.86 71.3308 116.042 70.5704 116.042C69.4246 116.042 68.4949 115.644 67.7814 114.847C67.073 114.05 66.7189 112.996 66.7189 111.683V111.582ZM68.172 111.753C68.172 112.691 68.3881 113.444 68.8204 114.011C69.2579 114.579 69.8413 114.863 70.5704 114.863C71.3048 114.863 71.8881 114.576 72.3204 114.003C72.7527 113.425 72.9689 112.618 72.9689 111.582C72.9689 110.654 72.7475 109.904 72.3048 109.332C71.8673 108.753 71.284 108.464 70.5548 108.464C69.8413 108.464 69.2657 108.748 68.8282 109.316C68.3907 109.884 68.172 110.696 68.172 111.753ZM79.6173 114.863C80.1329 114.863 80.5835 114.707 80.9689 114.394C81.3543 114.082 81.5678 113.691 81.6095 113.222H82.9767C82.9506 113.707 82.784 114.167 82.4767 114.605C82.1694 115.042 81.7579 115.391 81.2423 115.652C80.7319 115.912 80.1902 116.042 79.6173 116.042C78.4663 116.042 77.5496 115.66 76.8673 114.894C76.1902 114.123 75.8517 113.071 75.8517 111.738V111.496C75.8517 110.673 76.0027 109.941 76.3048 109.3C76.6069 108.66 77.0392 108.162 77.6017 107.808C78.1694 107.454 78.8387 107.277 79.6095 107.277C80.5574 107.277 81.3439 107.561 81.9689 108.128C82.5991 108.696 82.935 109.433 82.9767 110.339H81.6095C81.5678 109.792 81.3595 109.345 80.9845 108.996C80.6147 108.641 80.1564 108.464 79.6095 108.464C78.8751 108.464 78.3048 108.73 77.8986 109.261C77.4975 109.787 77.297 110.55 77.297 111.55V111.824C77.297 112.798 77.4975 113.548 77.8986 114.074C78.2996 114.6 78.8725 114.863 79.6173 114.863ZM91.5157 115.886H90.0704V108.628H86.1798V115.886H84.7267V107.433H91.5157V115.886ZM100.977 111.753C100.977 113.04 100.682 114.076 100.094 114.863C99.5053 115.649 98.7085 116.042 97.7032 116.042C96.6772 116.042 95.8699 115.717 95.2814 115.066V119.136H93.8361V107.433H95.1564L95.2267 108.371C95.8152 107.641 96.6329 107.277 97.6798 107.277C98.6954 107.277 99.4975 107.66 100.086 108.425C100.68 109.191 100.977 110.256 100.977 111.621V111.753ZM99.5314 111.589C99.5314 110.636 99.3282 109.884 98.922 109.332C98.5157 108.779 97.9585 108.503 97.2501 108.503C96.3751 108.503 95.7189 108.891 95.2814 109.667V113.707C95.7137 114.477 96.3751 114.863 97.2657 114.863C97.9585 114.863 98.5079 114.589 98.9142 114.042C99.3256 113.49 99.5314 112.673 99.5314 111.589ZM102.438 111.582C102.438 110.753 102.599 110.009 102.922 109.347C103.25 108.686 103.703 108.175 104.281 107.816C104.865 107.457 105.529 107.277 106.274 107.277C107.425 107.277 108.354 107.675 109.063 108.472C109.776 109.269 110.133 110.329 110.133 111.652V111.753C110.133 112.576 109.974 113.316 109.656 113.972C109.344 114.623 108.893 115.131 108.305 115.496C107.721 115.86 107.05 116.042 106.289 116.042C105.143 116.042 104.214 115.644 103.5 114.847C102.792 114.05 102.438 112.996 102.438 111.683V111.582ZM103.891 111.753C103.891 112.691 104.107 113.444 104.539 114.011C104.977 114.579 105.56 114.863 106.289 114.863C107.024 114.863 107.607 114.576 108.039 114.003C108.471 113.425 108.688 112.618 108.688 111.582C108.688 110.654 108.466 109.904 108.024 109.332C107.586 108.753 107.003 108.464 106.274 108.464C105.56 108.464 104.984 108.748 104.547 109.316C104.109 109.884 103.891 110.696 103.891 111.753ZM117.414 107.433H118.859V115.886H117.414V109.722L113.516 115.886H112.07V107.433H113.516V113.605L117.414 107.433ZM125.828 109.746C125.828 109.35 125.677 109.037 125.375 108.808C125.073 108.574 124.659 108.457 124.133 108.457C123.623 108.457 123.195 108.589 122.852 108.855C122.513 109.121 122.344 109.433 122.344 109.792H120.906C120.906 109.058 121.214 108.457 121.828 107.988C122.443 107.519 123.211 107.285 124.133 107.285C125.123 107.285 125.893 107.498 126.445 107.925C126.998 108.347 127.274 108.951 127.274 109.738C127.274 110.118 127.159 110.467 126.93 110.785C126.701 111.102 126.375 111.355 125.953 111.542C126.938 111.876 127.43 112.532 127.43 113.511C127.43 114.287 127.13 114.902 126.531 115.355C125.932 115.808 125.133 116.035 124.133 116.035C123.159 116.035 122.354 115.798 121.719 115.324C121.089 114.845 120.774 114.199 120.774 113.386H122.211C122.211 113.798 122.393 114.152 122.758 114.449C123.128 114.74 123.586 114.886 124.133 114.886C124.685 114.886 125.13 114.759 125.469 114.503C125.807 114.248 125.977 113.917 125.977 113.511C125.977 113.037 125.833 112.699 125.547 112.496C125.266 112.287 124.826 112.183 124.227 112.183H122.781V110.964H124.352C125.336 110.938 125.828 110.532 125.828 109.746ZM129.438 115.886V107.433H132.734C133.859 107.433 134.721 107.631 135.32 108.027C135.925 108.417 136.227 108.993 136.227 109.753C136.227 110.144 136.109 110.498 135.875 110.816C135.641 111.128 135.294 111.368 134.836 111.535C135.346 111.654 135.755 111.889 136.063 112.238C136.375 112.587 136.531 113.003 136.531 113.488C136.531 114.264 136.245 114.858 135.672 115.269C135.104 115.681 134.3 115.886 133.258 115.886H129.438ZM130.883 112.175V114.722H133.274C133.878 114.722 134.328 114.61 134.625 114.386C134.927 114.162 135.078 113.847 135.078 113.441C135.078 112.597 134.458 112.175 133.219 112.175H130.883ZM130.883 111.019H132.75C134.104 111.019 134.781 110.623 134.781 109.832C134.781 109.04 134.141 108.631 132.859 108.605H130.883V111.019ZM141.953 116.042C140.807 116.042 139.875 115.667 139.156 114.917C138.438 114.162 138.078 113.154 138.078 111.894V111.628C138.078 110.79 138.237 110.042 138.555 109.386C138.878 108.725 139.326 108.209 139.899 107.839C140.477 107.464 141.102 107.277 141.774 107.277C142.873 107.277 143.727 107.639 144.336 108.363C144.945 109.087 145.25 110.123 145.25 111.472V112.074H139.524C139.544 112.907 139.787 113.582 140.25 114.097C140.719 114.608 141.313 114.863 142.031 114.863C142.542 114.863 142.974 114.759 143.328 114.55C143.682 114.342 143.992 114.066 144.258 113.722L145.141 114.41C144.432 115.498 143.37 116.042 141.953 116.042ZM141.774 108.464C141.19 108.464 140.701 108.678 140.305 109.105C139.909 109.527 139.664 110.121 139.57 110.886H143.805V110.777C143.763 110.042 143.565 109.475 143.211 109.074C142.857 108.667 142.378 108.464 141.774 108.464ZM150.32 114.863C150.836 114.863 151.287 114.707 151.672 114.394C152.057 114.082 152.271 113.691 152.313 113.222H153.68C153.654 113.707 153.487 114.167 153.18 114.605C152.873 115.042 152.461 115.391 151.945 115.652C151.435 115.912 150.893 116.042 150.32 116.042C149.169 116.042 148.253 115.66 147.57 114.894C146.893 114.123 146.555 113.071 146.555 111.738V111.496C146.555 110.673 146.706 109.941 147.008 109.3C147.31 108.66 147.742 108.162 148.305 107.808C148.873 107.454 149.542 107.277 150.313 107.277C151.261 107.277 152.047 107.561 152.672 108.128C153.302 108.696 153.638 109.433 153.68 110.339H152.313C152.271 109.792 152.063 109.345 151.688 108.996C151.318 108.641 150.859 108.464 150.313 108.464C149.578 108.464 149.008 108.73 148.602 109.261C148.201 109.787 148 110.55 148 111.55V111.824C148 112.798 148.201 113.548 148.602 114.074C149.003 114.6 149.576 114.863 150.32 114.863ZM161.586 108.605H158.75V115.886H157.305V108.605H154.524V107.433H161.586V108.605ZM168.461 107.433H169.906V115.886H168.461V109.722L164.563 115.886H163.117V107.433H164.563V113.605L168.461 107.433Z" fill="white"/>
<defs>
<linearGradient id="paint0_linear" x1="152" y1="61.5" x2="43.5" y2="143" gradientUnits="userSpaceOnUse">
<stop stop-color="#59BC5F"/>
<stop offset="1" stop-color="#12A41B"/>
</linearGradient>
</defs>
</svg>
