<svg width="80" height="80" viewBox="0 0 80 80" fill="none" xmlns="http://www.w3.org/2000/svg">
<g clip-path="url(#clip0)">
<path d="M39.2195 51.989C46.4711 52.4473 52.449 46.4674 51.9884 39.2154C51.6087 33.2362 46.7548 28.386 40.7753 28.0107C33.5259 27.5557 27.5529 33.5318 28.011 40.7805C28.3892 46.7596 33.2404 51.6112 39.2195 51.989Z" fill="#C2C5C8"/>
<path d="M42.1824 0.0587389C37.706 -0.182042 33.3846 0.32452 29.3198 1.44796C28.749 1.60577 28.3489 2.11811 28.3489 2.7103V21.1797C28.3489 21.8276 29.046 22.2384 29.6103 21.9198C33.0885 19.9558 37.1848 18.9555 41.5371 19.3041C51.9335 20.1367 60.1839 28.6942 60.6543 39.1134C61.2081 51.3711 51.1692 61.4301 38.9135 60.9042C27.9467 60.4336 18.9879 50.7864 18.9879 39.8095C18.9879 39.0753 18.9879 6.96468 18.9879 7.34936C18.9879 6.74671 18.3145 6.38515 17.8134 6.71983C6.95276 13.9731 -0.15833 26.3958 0.00495104 40.4742C0.251514 61.7366 17.3276 79.2387 38.5787 79.9753C61.6576 80.7753 80.5559 62.0142 79.986 38.9856C79.4721 18.217 62.9273 1.17452 42.1824 0.0587389Z" fill="#C2C5C8"/>
<path d="M39.2195 51.989C46.4711 52.4473 52.449 46.4674 51.9884 39.2154C51.6087 33.2362 46.7548 28.386 40.7753 28.0107C33.5259 27.5557 27.5529 33.5318 28.011 40.7805C28.3892 46.7596 33.2404 51.6112 39.2195 51.989Z" fill="#C2C5C8"/>
<path d="M31.2306 40.7807C30.8239 34.3484 35.4818 28.9187 41.6017 28.0951C41.3286 28.0585 41.0536 28.0282 40.7753 28.0107C33.5259 27.5557 27.5528 33.5318 28.0111 40.7805C28.389 46.7595 33.2403 51.611 39.2195 51.989C40.0376 52.0407 40.8393 52.0098 41.6175 51.9049C36.0215 51.1566 31.5911 46.4832 31.2306 40.7807Z" fill="#C2C5C8"/>
<path d="M41.4421 60.8606C41.6715 60.8786 41.9015 60.8942 42.1328 60.904C54.3882 61.43 64.4275 51.3711 63.8736 39.1133C63.4028 28.6942 55.1528 20.1364 44.7564 19.3039C43.6337 19.214 42.5289 19.2154 41.4465 19.2984C41.4767 19.3008 41.5067 19.3015 41.5368 19.3039C51.9332 20.1365 60.1835 28.694 60.654 39.1133C61.169 50.5159 52.5173 60.0142 41.4421 60.8606Z" fill="#C2C5C8"/>
<path d="M29.61 21.9198C30.2428 21.5624 30.8967 21.2379 31.5679 20.9468V0.896484C30.8103 1.05945 30.0604 1.24336 29.3195 1.4482C28.7485 1.60602 28.3484 2.11836 28.3484 2.71055V21.1799C28.3484 21.8277 29.0457 22.2384 29.61 21.9198Z" fill="#C2C5C8"/>
<path d="M3.22448 40.4744C3.07167 27.3003 9.28901 15.5762 18.9879 8.18076C18.9879 7.66936 18.9879 7.37639 18.9879 7.3492C18.9879 6.74654 18.3145 6.38498 17.8134 6.71967C6.95276 13.9733 -0.15833 26.3959 0.00495104 40.4744C0.251514 61.7367 17.3276 79.2389 38.5787 79.9754C39.5968 80.0108 40.606 80.0059 41.6065 79.9664C20.4448 79.1312 3.47026 61.6725 3.22448 40.4744Z" fill="#C2C5C8"/>
</g>
<defs>
<clipPath id="clip0">
<rect width="80" height="80" fill="white"/>
</clipPath>
</defs>
</svg>
