<svg width="170" height="170" viewBox="0 0 170 170" fill="none" xmlns="http://www.w3.org/2000/svg">
<rect width="170" height="170" rx="10" fill="#5663ED"/>
<path d="M67.5381 83.5569H63.6694C63.5025 83.5569 63.367 83.4216 63.367 83.2545V78.2628C63.367 78.0959 63.2317 77.9604 63.0647 77.9604H59.3717C59.2048 77.9604 59.0693 78.0958 59.0693 78.2628V91.7379C59.0693 91.9047 59.2046 92.0402 59.3717 92.0402H63.0647C63.2315 92.0402 63.367 91.9049 63.367 91.7379V86.8049C63.367 86.638 63.5023 86.5025 63.6694 86.5025H67.5381C67.705 86.5025 67.8405 86.6378 67.8405 86.8049V91.7379C67.8405 91.9047 67.9758 92.0402 68.1428 92.0402H71.8363C72.0031 92.0402 72.1386 91.9049 72.1386 91.7379V78.2628C72.1386 78.0959 72.0033 77.9604 71.8363 77.9604H68.1428C67.9759 77.9604 67.8405 78.0958 67.8405 78.2628V83.2547C67.8403 83.4216 67.705 83.5569 67.5381 83.5569Z" fill="white"/>
<path d="M75.619 92.0402H79.3115C79.4784 92.0402 79.6139 91.9049 79.6139 91.7379V78.2628C79.6139 78.0959 79.4785 77.9604 79.3115 77.9604H75.619C75.4521 77.9604 75.3167 78.0958 75.3167 78.2628V91.7379C75.3167 91.9047 75.452 92.0402 75.619 92.0402Z" fill="white"/>
<path d="M50.2392 77.666C48.6338 77.666 46.7167 77.7699 45.2698 77.9295C45.1163 77.9463 45 78.0755 45 78.2301V91.7378C45 91.9047 45.1353 92.0401 45.3023 92.0401H48.9949C49.1617 92.0401 49.2972 91.9048 49.2972 91.7378V88.9847C49.2972 88.8178 49.4325 88.6823 49.5995 88.6823H50.8281C54.8307 88.6823 57.3624 86.6201 57.3624 83.0267C57.3624 79.0796 54.6543 77.666 50.2392 77.666ZM50.0041 86.1492H49.5994C49.4325 86.1492 49.297 86.0139 49.297 85.8468V80.6223C49.297 80.4582 49.4286 80.3232 49.5927 80.3196C49.735 80.3165 49.8721 80.3165 50.0041 80.3165C52.1232 80.3165 53.1238 81.3179 53.1238 83.0853C53.1236 84.9121 52.2402 86.1492 50.0041 86.1492Z" fill="white"/>
<path d="M105.516 77.666C103.911 77.666 101.993 77.7699 100.547 77.9295C100.394 77.9463 100.277 78.0755 100.277 78.2301V91.7379C100.277 91.9048 100.413 92.0403 100.58 92.0403H104.272C104.438 92.0403 104.574 91.905 104.574 91.7379V88.9847C104.574 88.8178 104.709 88.6823 104.876 88.6823H106.105C110.107 88.6823 112.639 86.6201 112.639 83.0267C112.639 79.0796 109.93 77.666 105.516 77.666ZM105.28 86.1492H104.876C104.709 86.1492 104.574 86.0139 104.574 85.8468V80.6223C104.574 80.4582 104.705 80.3232 104.869 80.3196C105.011 80.3165 105.148 80.3165 105.28 80.3165C107.399 80.3165 108.4 81.3179 108.4 83.0853C108.4 84.9121 107.517 86.1492 105.28 86.1492Z" fill="white"/>
<path d="M86.7878 77.9604H83.0948C82.9279 77.9604 82.7925 78.0958 82.7925 78.2628V91.7379C82.7925 91.9047 82.9278 92.0402 83.0948 92.0402H90.322C90.463 92.0402 90.5852 91.9427 90.6167 91.8054L91.1256 89.5824C91.1689 89.3932 91.0252 89.2127 90.8309 89.2127H87.3923C87.2255 89.2127 87.09 89.0774 87.09 88.9103V78.2628C87.0902 78.0959 86.9548 77.9604 86.7878 77.9604Z" fill="white"/>
<path d="M118.231 81.5538C118.231 80.7881 118.996 80.4343 120.232 80.4343C121.395 80.4343 122.645 80.652 123.609 80.9748C123.818 81.0448 124.027 80.8723 124.002 80.6532L123.731 78.2949C123.716 78.1654 123.619 78.0598 123.492 78.0335C122.455 77.8205 121.469 77.666 119.762 77.666C116.288 77.666 113.933 79.0354 113.933 81.9071C113.933 86.8557 120.644 85.8543 120.644 88.1517C120.644 89.0361 119.997 89.5069 118.407 89.5069C117.162 89.5069 115.321 89.1408 114.015 88.6095C113.798 88.5211 113.566 88.6995 113.6 88.9318L113.965 91.4451C113.981 91.557 114.057 91.6519 114.165 91.6881C115.442 92.1191 117.116 92.3345 118.466 92.3345C122.057 92.3345 125 91.1567 125 87.6215C125 82.9087 118.231 83.7924 118.231 81.5538Z" fill="white"/>
<path d="M93.0436 92.0402H96.7365C96.9034 92.0402 97.0389 91.9049 97.0389 91.7379V78.2628C97.0389 78.0959 96.9036 77.9604 96.7365 77.9604H93.0436C92.8767 77.9604 92.7412 78.0958 92.7412 78.2628V91.7379C92.7414 91.9047 92.8767 92.0402 93.0436 92.0402Z" fill="white"/>
</svg>
