<svg width="70" height="70" viewBox="0 0 70 70" fill="none" xmlns="http://www.w3.org/2000/svg">
    <g clip-path="url(#clip0)">
        <path
            d="M45.2432 5.51951C45.0072 5.35395 44.7124 5.2952 44.4315 5.35822C44.15 5.42124 43.9086 5.59962 43.7655 5.84956C43.7585 5.86184 43.75 5.87305 43.7425 5.88427C43.4135 6.35424 42.7636 6.46853 42.2936 6.14008C41.8295 5.81538 41.1903 5.92753 40.8656 6.39162L39.3713 8.52625C39.0466 8.99034 39.1592 9.62961 39.6228 9.95432C39.8023 10.0798 40.0073 10.1402 40.2103 10.1402C40.5334 10.1402 40.8517 9.98743 41.0509 9.70278L42.0576 8.26456C43.0029 8.52785 44.0298 8.32491 44.8042 7.71502L46.3167 8.77405C46.7808 9.09876 47.4195 8.98607 47.7447 8.52251C48.0695 8.05842 47.9568 7.41915 47.4927 7.09444L45.2432 5.51951Z"
            fill="white" />
        <path
            d="M56.5826 18.4356L55.5759 19.8733C55.2512 20.3374 55.3639 20.9767 55.8275 21.3014C56.0069 21.4269 56.212 21.4867 56.4149 21.4867C56.7381 21.4867 57.0563 21.3345 57.2556 21.0493L58.7504 18.9152C59.0751 18.4511 58.9624 17.8118 58.4988 17.4871C58.0289 17.1581 57.914 16.5082 58.2436 16.0377C58.2516 16.0265 58.259 16.0153 58.2681 16.0051C58.454 15.7845 58.5389 15.4967 58.5015 15.211C58.4647 14.9253 58.3093 14.6678 58.0732 14.5028L55.8237 12.9279C55.3596 12.6032 54.7204 12.7159 54.3957 13.18C54.0704 13.6435 54.1837 14.2833 54.6472 14.608L56.1597 15.6665C55.851 16.6033 56.0117 17.6372 56.5826 18.4356Z"
            fill="white" />
        <path
            d="M51.1413 41.4722C51.6284 41.4722 52.0807 41.6671 52.415 42.0217C52.8038 42.4329 53.4527 42.4516 53.8645 42.0628C54.2768 41.674 54.2949 41.0252 53.9061 40.6134C53.191 39.8561 52.1833 39.4214 51.1413 39.4214C49.0446 39.4214 47.3394 41.1272 47.3394 43.2239C47.3394 45.3201 49.0446 47.0258 51.1413 47.0258C52.1571 47.0258 53.112 46.6306 53.8298 45.9123C54.2303 45.5118 54.2303 44.8624 53.8298 44.4624C53.4298 44.0618 52.7803 44.0618 52.3798 44.4624C52.0492 44.7929 51.6092 44.9751 51.1413 44.9751C50.1757 44.9751 49.3901 44.1895 49.3901 43.2239C49.3901 42.2578 50.1757 41.4722 51.1413 41.4722Z"
            fill="white" />
        <path
            d="M60.2711 36.0006V27.7879C60.2711 24.9996 58.0024 22.7309 55.2141 22.7309H49.7726C50.0909 19.9816 49.1931 17.5634 47.2994 16.2373C45.695 15.1142 43.6165 14.9128 41.4461 15.6701C39.3948 16.3863 37.4866 17.8913 36.0745 19.9079C35.4491 20.8003 34.9514 21.7466 34.5904 22.7309H27.9147L42.2637 2.23857L62.175 16.1801L59.1416 20.513C58.8168 20.9771 58.9295 21.6163 59.3931 21.941C59.8572 22.2657 60.4965 22.153 60.8212 21.689L64.128 16.9663C64.6263 16.2565 64.4538 15.2733 63.743 14.7745L43.0499 0.285526C42.7059 0.0441318 42.2883 -0.0487943 41.8744 0.0238376C41.4605 0.0970036 41.1 0.326114 40.8581 0.670581L36.1119 7.44937V3.3617C36.1119 2.49385 35.4059 1.78783 34.538 1.78783H9.94362C9.07578 1.78783 8.36975 2.49385 8.36975 3.3617V8.97518C8.36975 9.54181 8.82904 10.0006 9.39514 10.0006C9.96178 10.0006 10.4205 9.54181 10.4205 8.97518V3.83915H13.3915V22.7304H10.6625C10.5818 22.7304 10.5012 22.7325 10.4205 22.7362V13.0767C10.4205 12.5106 9.96178 12.0513 9.39514 12.0513C8.82904 12.0513 8.36975 12.5106 8.36975 13.0767V23.281C6.73073 24.1184 5.60547 25.8242 5.60547 27.7879V58.6591C5.60547 61.4474 7.87415 63.7161 10.6625 63.7161H18.3187C18.8853 63.7161 19.3441 63.2573 19.3441 62.6907C19.3441 62.1246 18.8853 61.6653 18.3187 61.6653H10.6625C9.00475 61.6653 7.65625 60.3168 7.65625 58.6591V27.7879C7.65625 26.4741 8.50327 25.3547 9.67926 24.9467C9.70543 24.9392 9.7316 24.9307 9.7567 24.9211C10.043 24.8303 10.3474 24.7811 10.663 24.7811H55.2141C56.8718 24.7811 58.2208 26.1302 58.2208 27.7879V35.8586H50.8797C46.8187 35.8586 43.5145 39.1623 43.5145 43.2238C43.5145 47.2847 46.8187 50.5884 50.8797 50.5884H58.2208V58.6591C58.2208 60.3168 56.8718 61.6653 55.2141 61.6653H47.3789C46.8123 61.6653 46.3535 62.1246 46.3535 62.6907C46.3535 63.2573 46.8123 63.7161 47.3789 63.7161H55.2141C58.0024 63.7161 60.2716 61.4474 60.2716 58.6591V50.4464C62.5916 49.8957 64.3224 47.8065 64.3224 45.321V41.1265C64.3219 38.6405 62.591 36.5512 60.2711 36.0006ZM37.7541 21.0849C40.0928 17.7449 43.8472 16.3243 46.1234 17.9174C47.4345 18.8355 48.0118 20.6369 47.7047 22.7304H36.8067C37.0668 22.1643 37.383 21.6137 37.7541 21.0849ZM34.0611 10.3781L25.4115 22.7309H20.3588V3.83861H34.0611V10.3781ZM15.4423 3.83861H18.308V22.7304H15.4423V3.83861ZM62.2711 45.3205C62.2711 47.0946 60.8281 48.5376 59.054 48.5376H50.8797C47.9493 48.5376 45.5653 46.1536 45.5653 43.2232C45.5653 40.2934 47.9493 37.9094 50.8797 37.9094H59.054C60.8281 37.9094 62.2711 39.3524 62.2711 41.1265V45.3205Z"
            fill="white" />
        <path
            d="M32.938 45.2236C26.1075 45.2236 20.55 50.781 20.55 57.6122C20.55 64.4428 26.1075 70.0002 32.938 70.0002C39.7692 70.0002 45.3266 64.4428 45.3266 57.6122C45.3266 50.781 39.7692 45.2236 32.938 45.2236ZM32.938 67.9494C27.238 67.9494 22.6008 63.3122 22.6008 57.6122C22.6008 51.9116 27.238 47.2744 32.938 47.2744C38.6386 47.2744 43.2758 51.9116 43.2758 57.6122C43.2758 63.3122 38.6386 67.9494 32.938 67.9494Z"
            fill="white" />
        <path
            d="M33.8128 56.5866H32.0638C31.5484 56.5866 31.1292 56.1673 31.1292 55.652C31.1292 55.1366 31.5484 54.7174 32.0638 54.7174H35.4107C35.9768 54.7174 36.4361 54.2581 36.4361 53.692C36.4361 53.1259 35.9768 52.6666 35.4107 52.6666H34.1519V51.7998C34.1519 51.2337 33.6926 50.7744 33.1265 50.7744C32.5604 50.7744 32.1011 51.2337 32.1011 51.7998V52.6666H32.0638C30.4178 52.6666 29.0784 54.006 29.0784 55.652C29.0784 57.2979 30.4178 58.6373 32.0638 58.6373H33.8128C34.3282 58.6373 34.7469 59.056 34.7469 59.5714C34.7469 60.0868 34.3282 60.506 33.8128 60.506H30.4659C29.8992 60.506 29.4405 60.9653 29.4405 61.5314C29.4405 62.0975 29.8992 62.5568 30.4659 62.5568H32.1011V63.4236C32.1011 63.9897 32.5604 64.449 33.1265 64.449C33.6932 64.449 34.1519 63.9897 34.1519 63.4236V62.5376C35.6387 62.3683 36.7982 61.1031 36.7982 59.5714C36.7976 57.9254 35.4588 56.5866 33.8128 56.5866Z"
            fill="white" />
    </g>
    <defs>
        <clipPath id="clip0">
            <rect width="70" height="70" fill="white" />
        </clipPath>
    </defs>
</svg>