 <svg width="70" height="70" viewBox="0 0 70 70" fill="none" xmlns="http://www.w3.org/2000/svg">
                        <g clip-path="url(#clip0)">
                            <path
                                d="M66.1291 35.4723H60.2444V19.5721C60.2444 17.4564 58.5231 15.7352 56.4076 15.7352H47.5521V11.9232C47.5521 9.87202 45.8834 8.20337 43.8323 8.20337H3.71984C1.66879 8.20337 0 9.87202 0 11.9232V13.5634C0 14.1299 0.459101 14.5888 1.02539 14.5888C1.59168 14.5888 2.05078 14.1299 2.05078 13.5634V11.9232C2.05078 11.003 2.79959 10.2542 3.71984 10.2542H43.8322C44.7524 10.2542 45.5012 11.003 45.5012 11.9232V44.218H2.05078V18.3711C2.05078 17.8047 1.59168 17.3458 1.02539 17.3458C0.459101 17.3458 0 17.8047 0 18.3711V53.1292C0 55.1803 1.66879 56.849 3.71984 56.849H6.07633C6.59189 59.6599 9.05967 61.7967 12.0173 61.7967C14.9749 61.7967 17.4427 59.6599 17.9583 56.849H34.2698C34.8361 56.849 35.2952 56.39 35.2952 55.8236C35.2952 55.2572 34.8361 54.7982 34.2698 54.7982H17.9811C17.5205 51.9216 15.0216 49.7168 12.0172 49.7168C9.01277 49.7168 6.51396 51.9218 6.05336 54.7983H3.71984C2.79959 54.7983 2.05078 54.0495 2.05078 53.1293V46.2687H45.5012V54.7983H38.973C38.4068 54.7983 37.9477 55.2573 37.9477 55.8237C37.9477 56.3902 38.4068 56.8491 38.973 56.8491H52.2711C52.7867 59.6601 55.2545 61.7968 58.212 61.7968C61.1695 61.7968 63.6374 59.6601 64.1529 56.8491H66.163C68.2787 56.8491 69.9999 55.1278 69.9999 53.0123V39.3434C70 37.2088 68.2635 35.4723 66.1291 35.4723ZM12.0172 51.7677C14.2168 51.7677 16.0063 53.5572 16.0063 55.7569C16.0063 57.9566 14.2168 59.7462 12.0172 59.7462C9.8175 59.7462 8.02799 57.9566 8.02799 55.7569C8.02799 53.5572 9.81764 51.7677 12.0172 51.7677ZM58.2121 59.7461C56.0124 59.7461 54.2229 57.9564 54.2229 55.7567C54.2229 53.5571 56.0124 51.7676 58.2121 51.7676C60.4118 51.7676 62.2013 53.5571 62.2013 55.7567C62.2013 57.9564 60.4118 59.7461 58.2121 59.7461ZM67.9492 44.9029H65.2204C64.6551 44.9029 64.1951 44.443 64.1951 43.8775C64.1951 43.3121 64.655 42.8521 65.2204 42.8521H67.9492V44.9029ZM67.9492 40.8014H65.2204C63.5243 40.8014 62.1443 42.1814 62.1443 43.8775C62.1443 45.5737 63.5242 46.9537 65.2204 46.9537H67.9492V53.0121C67.9492 53.997 67.1479 54.7982 66.1631 54.7982H64.176C63.7154 51.9216 61.2165 49.7168 58.2121 49.7168C55.2077 49.7168 52.7089 51.9216 52.2483 54.7982H47.552V17.786H56.4074C57.3923 17.786 58.1935 18.5872 58.1935 19.5721V19.8109H51.3285C50.7622 19.8109 50.3031 20.2699 50.3031 20.8363V36.4977C50.3031 37.0641 50.7622 37.5231 51.3285 37.5231H66.1289C67.1326 37.5231 67.9491 38.3397 67.9491 39.3433V40.8014H67.9492ZM58.1936 21.8617V35.4723H52.354V21.8617H58.1936Z"
                                fill="white" />
                            <path
                                d="M53.6993 40.8013H51.3286C50.7623 40.8013 50.3032 41.2602 50.3032 41.8267C50.3032 42.3931 50.7623 42.8521 51.3286 42.8521H53.6993C54.2656 42.8521 54.7247 42.3931 54.7247 41.8267C54.7247 41.2602 54.2656 40.8013 53.6993 40.8013Z"
                                fill="white" />
                            <path
                                d="M29.7903 24.9436C30.3566 24.9436 30.8157 24.4846 30.8157 23.9182C30.8157 23.3518 30.3566 22.8928 29.7903 22.8928H25.6912C25.1249 22.8928 24.6658 23.3518 24.6658 23.9182V32.119C24.6658 32.6854 25.1249 33.1444 25.6912 33.1444H29.7903C30.3566 33.1444 30.8157 32.6854 30.8157 32.119C30.8157 31.5526 30.3566 31.0936 29.7903 31.0936H26.7166V29.0441H29.7903C30.3566 29.0441 30.8157 28.5851 30.8157 28.0187C30.8157 27.4523 30.3566 26.9933 29.7903 26.9933H26.7166V24.9436H29.7903Z"
                                fill="white" />
                            <path
                                d="M37.8542 24.9436C38.4205 24.9436 38.8796 24.4846 38.8796 23.9182C38.8796 23.3518 38.4205 22.8928 37.8542 22.8928H33.7551C33.1888 22.8928 32.7297 23.3518 32.7297 23.9182V32.119C32.7297 32.6854 33.1888 33.1444 33.7551 33.1444H37.8542C38.4205 33.1444 38.8796 32.6854 38.8796 32.119C38.8796 31.5526 38.4205 31.0936 37.8542 31.0936H34.7805V29.0441H37.8542C38.4205 29.0441 38.8796 28.5851 38.8796 28.0187C38.8796 27.4523 38.4205 26.9933 37.8542 26.9933H34.7805V24.9436H37.8542Z"
                                fill="white" />
                            <path
                                d="M13.7969 24.9436C14.3631 24.9436 14.8222 24.4846 14.8222 23.9182C14.8222 23.3518 14.3631 22.8928 13.7969 22.8928H9.69775C9.13146 22.8928 8.67236 23.3518 8.67236 23.9182V32.119C8.67236 32.6854 9.13146 33.1444 9.69775 33.1444C10.264 33.1444 10.7231 32.6854 10.7231 32.119V29.0441H13.7969C14.3631 29.0441 14.8222 28.5851 14.8222 28.0187C14.8222 27.4523 14.3631 26.9933 13.7969 26.9933H10.7231V24.9436H13.7969Z"
                                fill="white" />
                            <path
                                d="M22.7519 28.0187V23.9182C22.7519 23.3518 22.2928 22.8928 21.7265 22.8928H17.6274C17.0612 22.8928 16.6021 23.3518 16.6021 23.9182V32.119C16.6021 32.6854 17.0612 33.1444 17.6274 33.1444C18.1937 33.1444 18.6528 32.6854 18.6528 32.119V29.358L20.8734 32.6879C21.071 32.9843 21.3961 33.1445 21.7275 33.1445C21.923 33.1445 22.1206 33.0888 22.2954 32.9721C22.7666 32.6578 22.8938 32.0213 22.5797 31.5501L20.9084 29.0441H21.7265C22.2928 29.0441 22.7519 28.585 22.7519 28.0187ZM20.7012 26.9933H18.6528V24.9436H20.7012V26.9933Z"
                                fill="white" />
                        </g>
                        <defs>
                            <clipPath id="clip0">
                                <rect width="70" height="70" fill="white" />
                            </clipPath>
                        </defs>
                    </svg>