<svg width="50" height="50" viewBox="0 0 50 50" fill="none" xmlns="http://www.w3.org/2000/svg">
<path d="M36.6141 15.7648C35.9757 15.126 35.2176 14.6193 34.3833 14.2736C33.549 13.9279 32.6547 13.75 31.7516 13.75C30.8485 13.75 29.9542 13.9279 29.1199 14.2736C28.2856 14.6193 27.5276 15.126 26.8891 15.7648L25.5641 17.0898L24.2391 15.7648C22.9495 14.4752 21.2004 13.7507 19.3766 13.7507C17.5528 13.7507 15.8037 14.4752 14.5141 15.7648C13.2245 17.0544 12.5 18.8035 12.5 20.6273C12.5 22.4511 13.2245 24.2002 14.5141 25.4898L15.8391 26.8148L25.5641 36.5398L35.2891 26.8148L36.6141 25.4898C37.2529 24.8513 37.7596 24.0933 38.1053 23.259C38.451 22.4247 38.6289 21.5304 38.6289 20.6273C38.6289 19.7242 38.451 18.8299 38.1053 17.9956C37.7596 17.1613 37.2529 16.4032 36.6141 15.7648V15.7648Z" stroke="white" stroke-width="2" stroke-linecap="round" stroke-linejoin="round"/>
</svg>
