<svg width="80" height="80" viewBox="0 0 80 80" fill="none" xmlns="http://www.w3.org/2000/svg">
<g clip-path="url(#clip0)">
<path d="M12.4672 10.9199C12.3486 10.7729 12.13 10.7629 11.9974 10.8974C10.7532 12.1595 5.30615 18.0452 5.75084 23.9427C6.01147 28.8336 9.59755 31.7902 9.7974 31.9514C9.95365 32.0775 15.2193 37.711 34.1095 47.1177C34.1584 47.1283 34.3364 47.1897 34.4405 47.0603C34.4405 47.0603 34.5869 46.9436 34.5105 46.7581C25.8294 27.7946 14.2007 13.0682 12.4672 10.9199Z" fill="#C2C5C8"/>
<path d="M32.1583 52.1364C32.0969 51.9262 31.84 51.9262 31.84 51.9262V51.9136L7.77224 52.7542C7.53131 52.7626 7.38912 53.0264 7.51224 53.2336C10.206 57.7664 14.561 61.1857 19.0827 60.0806C22.3141 59.282 29.6289 54.1747 32.0425 52.4458H32.0361C32.2188 52.2698 32.1583 52.1364 32.1583 52.1364Z" fill="#C2C5C8"/>
<path d="M32.4383 49.5674C22.4406 42.8215 3.77237 32.7398 1.04003 31.2717C0.864877 31.1776 0.645815 31.2665 0.589722 31.4573C-1.09418 37.1788 1.36331 41.7323 1.36331 41.7323C4.02972 47.3701 9.11939 49.0796 9.11939 49.0796C11.4788 50.0427 13.8303 50.1062 13.8303 50.1062C14.1961 50.174 28.4529 50.1168 32.2753 50.0976C32.4383 50.0935 32.5222 49.9355 32.5222 49.9355C32.6464 49.7394 32.4383 49.5674 32.4383 49.5674Z" fill="#C2C5C8"/>
<path d="M30.2025 0.781303C23.6802 2.47427 20.1047 9.08926 22.1808 16.1716C22.1823 16.1767 22.1834 16.1814 22.1847 16.1867C24.3611 25.8302 35.0498 41.6693 37.3486 44.9922C37.5086 45.1556 37.6392 45.0864 37.6392 45.0864C37.8851 45.0239 37.8661 44.7834 37.8661 44.7834L37.8715 44.7865C41.1493 12.0163 35.1695 1.55068 34.2697 0.18521C34.2039 0.0853666 34.0876 0.0319292 33.969 0.0469291C32.7844 0.198023 30.2025 0.781303 30.2025 0.781303Z" fill="#C2C5C8"/>
<path d="M57.8585 8.38417C57.8568 8.37949 57.8554 8.37495 57.854 8.37011C57.7941 8.15495 56.1252 2.34934 49.724 0.791219C49.724 0.791219 47.9663 0.346532 46.0485 0.0546578C45.256 -0.0659669 38.7534 11.3198 42.1126 44.8135C42.1426 45.0329 42.3017 45.0839 42.3017 45.0839C42.5381 45.1791 42.6557 44.9499 42.6557 44.9499L42.6571 44.9533C45.022 41.5394 55.6518 25.7757 57.8151 16.1788C57.8151 16.1787 58.986 11.5339 57.8585 8.38417Z" fill="#C2C5C8"/>
<path d="M48.1216 51.9347C48.1216 51.9347 48.1055 51.9369 48.0809 51.9435C47.897 51.9916 47.7887 52.1981 47.8715 52.3692C47.8865 52.4002 47.9077 52.4296 47.9374 52.4542V52.4574C50.2896 54.1461 57.4293 59.1377 60.8672 60.1031C60.8672 60.1031 67.0168 62.1991 72.4696 53.2435C72.5953 53.0367 72.4528 52.77 72.211 52.7616L48.1235 51.9302L48.1216 51.9347Z" fill="#C2C5C8"/>
<path d="M79.4108 31.4143C79.353 31.2212 79.1353 31.1271 78.9578 31.2229C76.2326 32.6934 57.5824 42.8077 47.583 49.5463V49.5507C47.3111 49.7327 47.4793 50.0935 47.7061 50.0935C51.5768 50.1021 66.2295 50.1212 66.5955 50.0577C66.5955 50.0577 68.4841 49.9727 70.8258 49.0796C70.8258 49.0796 76.0375 47.423 78.7459 41.5034C78.7459 41.5034 81.0512 36.8912 79.4108 31.4143Z" fill="#C2C5C8"/>
<path d="M74.2428 23.9104C74.6281 17.8121 69.2355 12.1131 67.9983 10.8904C67.8652 10.7589 67.6491 10.7704 67.5314 10.9161C65.8111 13.0473 54.2083 27.7334 45.5319 46.6613H45.536C45.3974 46.9597 45.7055 47.2211 45.9351 47.0888C64.0553 38.0708 69.2928 32.696 70.1991 31.9519C70.3885 31.7965 74.0385 28.7393 74.2428 23.9104Z" fill="#C2C5C8"/>
<path d="M9.30248 72.1544H3.0839C2.99859 72.1544 2.92953 72.0853 2.92953 72V67.0968C2.92953 67.0114 2.86046 66.9424 2.77515 66.9424H0.154375C0.0690624 66.9424 0 67.0114 0 67.0968V79.6645C0 79.7499 0.0690624 79.8189 0.154375 79.8189H2.775C2.86031 79.8189 2.92937 79.7499 2.92937 79.6645V74.5999C2.92937 74.5146 2.99843 74.4455 3.08374 74.4455H9.30233C9.38764 74.4455 9.4567 74.5146 9.4567 74.5999V79.6645C9.4567 79.7499 9.52576 79.8189 9.61108 79.8189H12.2403C12.3256 79.8189 12.3947 79.7499 12.3947 79.6645V67.0968C12.3947 67.0114 12.3256 66.9424 12.2403 66.9424H9.61123C9.52592 66.9424 9.45686 67.0114 9.45686 67.0968V72C9.45686 72.0852 9.3878 72.1544 9.30248 72.1544Z" fill="#C2C5C8"/>
<path d="M23.9778 74.6593C23.9778 76.9313 23.2822 77.8774 20.8548 77.8774C18.4283 77.8774 17.7111 76.9313 17.7111 74.6593V67.0972C17.7111 67.0119 17.642 66.9429 17.5567 66.9429H14.9552C14.8698 66.9429 14.8008 67.0119 14.8008 67.0972V74.725C14.8008 76.3583 14.9533 77.4915 15.5941 78.1827C16.7333 79.4472 18.4283 79.9561 20.855 79.9561C23.2823 79.9561 24.9451 79.4471 26.0929 78.1827C26.7167 77.5061 26.9114 76.3713 26.9114 74.725V67.0972C26.9114 67.0119 26.8423 66.9429 26.757 66.9429H24.1323C24.047 66.9429 23.978 67.0119 23.978 67.0972L23.9778 74.6593Z" fill="#C2C5C8"/>
<path d="M33.3425 67.0322L27.5823 79.6C27.5355 79.7024 27.6102 79.8188 27.7227 79.8188H30.4825C30.5455 79.8188 30.602 79.7806 30.6256 79.7224L31.7894 76.8499C31.813 76.7916 31.8695 76.7535 31.9325 76.7535H37.7781C37.8403 76.7535 37.8965 76.7908 37.9206 76.8483L39.1248 79.7241C39.1489 79.7814 39.205 79.8189 39.2673 79.8189H42.1879C42.3006 79.8189 42.3753 79.7022 42.3281 79.5999L36.5326 67.0321C36.5075 66.9774 36.4526 66.9424 36.3925 66.9424H33.4828C33.4225 66.9421 33.3676 66.9772 33.3425 67.0322ZM32.8672 74.2449L34.6795 69.8547C34.7317 69.7283 34.9105 69.7271 34.9642 69.853L36.8408 74.2432C36.8844 74.345 36.8095 74.4583 36.6987 74.4583H33.0098C32.9 74.4583 32.8253 74.3466 32.8672 74.2449Z" fill="#C2C5C8"/>
<path d="M56.1297 76.3664L53.1911 67.0494C53.1708 66.9852 53.1112 66.9414 53.0437 66.9414H49.817C49.7475 66.9414 49.6865 66.988 49.6681 67.055L47.1198 76.3453C47.0794 76.4931 46.8716 76.498 46.8241 76.3523L43.792 67.048C43.7712 66.9844 43.712 66.9414 43.6452 66.9414H40.8311C40.7241 66.9414 40.6495 67.0475 40.6858 67.1483L45.2181 79.7161C45.2402 79.7773 45.2983 79.8181 45.3634 79.8181H48.707C48.7769 79.8181 48.838 79.7714 48.8561 79.7041L51.2847 70.7192C51.325 70.5698 51.5356 70.5661 51.5812 70.7139L54.3603 79.7094C54.3803 79.7741 54.4401 79.8183 54.5078 79.8183H57.8786C57.945 79.8183 58.004 79.7758 58.025 79.7128L62.2246 67.145C62.2581 67.045 62.1837 66.9417 62.0782 66.9417H59.4047C59.3367 66.9417 59.2767 66.9863 59.2568 67.0513L56.4248 76.3651C56.3804 76.51 56.1753 76.5111 56.1297 76.3664Z" fill="#C2C5C8"/>
<path d="M62.9238 73.6155C62.9238 75.9469 63.622 77.6355 65.058 78.6877C66.4157 79.6887 67.7169 79.8184 69.4049 79.8184H74.1996C74.2849 79.8184 74.354 79.7494 74.354 79.6641V77.7327C74.354 77.6473 74.2849 77.5783 74.1996 77.5783H69.5427C67.2902 77.5783 66.2905 76.7688 66.2269 74.5805C66.2244 74.4939 66.2952 74.4219 66.3819 74.4219H74.1996C74.2849 74.4219 74.354 74.3528 74.354 74.2675V72.3299C74.354 72.2445 74.2849 72.1755 74.1996 72.1755H66.4107C66.3207 72.1755 66.2482 72.098 66.2562 72.0083C66.4251 70.1022 67.4849 69.1883 69.5427 69.1883H74.1996C74.2849 69.1883 74.354 69.1192 74.354 69.0339V67.0963C74.354 67.011 74.2849 66.9419 74.1996 66.9419H69.4824C64.9996 66.9417 62.9238 69.0653 62.9238 73.6155Z" fill="#C2C5C8"/>
<path d="M76.9397 67.0958V79.6626C76.9397 79.7479 77.0088 79.817 77.0941 79.817H79.8455C79.9308 79.817 79.9999 79.7479 79.9999 79.6626V67.0958C79.9999 67.0105 79.9308 66.9414 79.8455 66.9414H77.0941C77.0088 66.9414 76.9397 67.0106 76.9397 67.0958Z" fill="#C2C5C8"/>
<path d="M11.1515 53.7406H11.1509C11.1426 53.7277 11.0018 53.5413 10.8768 53.2953C10.8644 53.2745 10.8516 53.2541 10.8393 53.2334C10.8207 53.2022 10.8099 53.1697 10.8029 53.1369C10.7366 52.9802 10.6871 52.8111 10.6834 52.6523L7.77242 52.7541C7.53148 52.7625 7.3893 53.0263 7.51258 53.2334C10.1907 57.7398 14.5107 61.1437 19.004 60.0973C15.9363 59.4023 13.143 56.8823 11.1515 53.7406Z" fill="#C2C5C8"/>
</g>
<defs>
<clipPath id="clip0">
<rect width="80" height="80" fill="white"/>
</clipPath>
</defs>
</svg>
