<svg width="50" height="50" viewBox="0 0 50 50" fill="none" xmlns="http://www.w3.org/2000/svg">
<path d="M32.5995 13H17.3999C14.9738 13 13 14.9738 13 17.3999V32.5995C13 35.0256 14.9738 37 17.3999 37H32.5995C35.0256 37 37 35.0262 37 32.5995V17.3999C37 14.9738 35.0262 13 32.5995 13ZM24.9997 32.9007C20.6436 32.9007 17.0993 29.3564 17.0993 24.9997C17.0993 20.6436 20.6436 17.0993 24.9997 17.0993C29.3564 17.0993 32.9007 20.6436 32.9007 24.9997C32.9007 29.3559 29.3559 32.9007 24.9997 32.9007ZM33.1546 18.7328C32.1234 18.7328 31.2848 17.8942 31.2848 16.8635C31.2848 15.8329 32.1234 14.9943 33.1546 14.9943C34.1853 14.9943 35.0239 15.8329 35.0239 16.8635C35.0239 17.8942 34.1853 18.7328 33.1546 18.7328Z" fill="#EDDAFF" fill-opacity="0.3"/>
<path d="M25.5003 21C23.0198 21 21 23.0187 21 25.4992C21 27.9808 23.0198 30 25.5003 30C27.9819 30 30 27.9808 30 25.4992C30 23.0192 27.9813 21 25.5003 21Z" fill="#EDDAFF" fill-opacity="0.3"/>
<path d="M25 0C11.1934 0 0 11.1934 0 25C0 38.8066 11.1934 50 25 50C38.8066 50 50 38.8066 50 25C50 11.1934 38.8066 0 25 0ZM40.0382 32.5185C40.0382 36.7026 36.6352 40.1056 32.4511 40.1056H17.5489C13.3654 40.1056 9.96179 36.7026 9.96179 32.5185V17.6163C9.96179 13.4328 13.3654 10.0292 17.5489 10.0292H32.4511C36.6352 10.0292 40.0382 13.4328 40.0382 17.6163V32.5185Z" fill="#EDDAFF" fill-opacity="0.3"/>
</svg>
