<svg width="157" height="55" viewBox="0 0 157 55" fill="none" xmlns="http://www.w3.org/2000/svg">
<g clip-path="url(#clip0)">
<path d="M30.27 22.4398C30.27 25.2131 28.9 27.5464 26.16 29.4398C23.28 31.4398 19.5467 32.4398 14.96 32.4398C11.1603 32.6003 7.40239 31.5954 4.19 29.5598C1.4 27.6298 0 25.2698 0 22.4498H4.99998C5.03416 23.3506 5.30192 24.2271 5.77702 24.9932C6.25212 25.7593 6.91825 26.3888 7.71001 26.8198C9.92536 28.1875 12.4985 28.863 15.1 28.7598C17.6497 28.8568 20.1774 28.2551 22.41 27.0198C24.35 25.8731 25.32 24.4565 25.32 22.7698C25.3241 21.9971 25.1282 21.2365 24.7515 20.5619C24.3748 19.8873 23.83 19.3216 23.17 18.9198C21.45 17.7398 18.86 17.1498 15.4 17.1498H13.6V13.3898H15.45C17.4053 13.4782 19.3489 13.0432 21.08 12.1298C21.7156 11.8052 22.2491 11.3112 22.6215 10.7023C22.9939 10.0935 23.1906 9.39348 23.19 8.67978C23.1621 8.03367 22.9818 7.40331 22.6637 6.84021C22.3457 6.27711 21.8989 5.79723 21.36 5.43977C19.7153 4.25279 17.7158 3.66037 15.69 3.75978C13.6425 3.67275 11.6249 4.27484 9.96001 5.46977C9.33865 5.87972 8.8258 6.43405 8.46532 7.08536C8.10484 7.73666 7.90743 8.46557 7.89 9.20978H2.89C2.89 6.76311 4.11666 4.64311 6.56999 2.84978C9.25457 0.95206 12.4839 -0.020257 15.77 0.0797736C18.9312 -0.0211385 22.041 0.897441 24.64 2.69978C26.96 4.36978 28.13 6.29978 28.13 8.48978C28.1618 9.86775 27.7861 11.2245 27.05 12.3898C26.2427 13.6258 25.0126 14.5253 23.59 14.9198C25.5613 15.3225 27.3298 16.4013 28.59 17.9698C29.6515 19.2198 30.2454 20.8 30.27 22.4398Z" fill="white"/>
<path d="M41.5801 31.8298V0.609808H55.5001C57.2656 0.584808 59.0261 0.80695 60.7301 1.2698C62.1051 1.63925 63.4095 2.23398 64.5901 3.02981C65.5617 3.68976 66.3746 4.55732 66.9701 5.5698C67.4955 6.4832 67.7778 7.51612 67.7901 8.5698C67.8001 9.93489 67.4108 11.2731 66.6701 12.4198C65.7676 13.6928 64.4975 14.6593 63.0301 15.1898V15.2498C63.9469 15.5584 64.818 15.989 65.6201 16.5298C66.3371 17.0152 66.9775 17.6051 67.5201 18.2798C68.0103 18.8808 68.4018 19.5559 68.6801 20.2798C68.9265 20.9184 69.0585 21.5954 69.0701 22.2798C69.0867 23.6548 68.7419 25.01 68.0701 26.2098C67.4061 27.4088 66.4713 28.436 65.3401 29.2098C64.0545 30.077 62.6309 30.7195 61.1301 31.1098C59.3684 31.5748 57.552 31.8002 55.7301 31.7798L41.5801 31.8298ZM50.7701 13.7298H56.0701C57.0653 13.7466 58.0581 13.6254 59.0201 13.3698C59.779 13.1693 60.4944 12.8303 61.1301 12.3698C61.675 11.9702 62.1115 11.4408 62.4001 10.8298C62.6872 10.203 62.8274 9.51897 62.8101 8.82979C62.829 8.12053 62.6301 7.42251 62.2401 6.82979C61.8057 6.22649 61.233 5.73612 60.5701 5.3998C59.7334 4.97064 58.8366 4.67058 57.9101 4.5098C56.742 4.29946 55.5569 4.19902 54.3701 4.2098H46.5501V28.0698H55.7701C56.761 28.0696 57.7494 27.9691 58.7201 27.7698C59.6409 27.5775 60.5253 27.24 61.3401 26.7698C62.0884 26.3486 62.7259 25.7557 63.2001 25.0398C63.6978 24.2697 63.9489 23.3663 63.9201 22.4498C63.9359 21.6717 63.7388 20.904 63.3501 20.2298C62.9603 19.5714 62.4186 19.0159 61.7701 18.6098C61.0148 18.1352 60.1822 17.7968 59.3101 17.6098C58.2625 17.3804 57.1924 17.2697 56.1201 17.2798H50.7701V13.7298Z" fill="white"/>
<path d="M109.18 4.60999C110.81 6.08082 112.11 7.88011 112.994 9.88948C113.879 11.8989 114.328 14.0728 114.312 16.2681C114.296 18.4635 113.815 20.6306 112.901 22.6268C111.987 24.6231 110.661 26.4031 109.01 27.85C105.349 30.8088 100.774 32.4028 96.067 32.359C91.3602 32.3152 86.8151 30.6364 83.21 27.61C81.6102 26.2597 80.3261 24.5748 79.4484 22.6742C78.5706 20.7735 78.1206 18.7035 78.13 16.61C78.13 11.5167 79.7967 7.47331 83.13 4.47998" stroke="white" stroke-width="4" stroke-miterlimit="10"/>
<path d="M125.19 31.8296V0.609619H130.19V13.9596C130.917 13.9282 131.635 13.7866 132.32 13.5396C133.294 13.1966 134.24 12.7787 135.15 12.2896C136.2 11.7396 137.32 11.0796 138.51 10.2896C139.756 9.47025 140.957 8.5857 142.11 7.63962C143.32 6.63962 144.55 5.56961 145.81 4.37961C147.07 3.18961 148.29 1.93961 149.49 0.599609H154.92C153.02 2.75961 151.227 4.63628 149.54 6.22961C147.99 7.70756 146.357 9.09645 144.65 10.3896C143.246 11.4637 141.787 12.465 140.28 13.3896C138.934 14.1834 137.518 14.8528 136.05 15.3896C137.013 15.6193 137.956 15.927 138.87 16.3096C139.853 16.7301 140.815 17.2007 141.75 17.7196C142.863 18.3449 143.935 19.0396 144.96 19.7996C146.169 20.7003 147.322 21.6756 148.41 22.7196C149.61 23.8496 150.88 25.1696 152.2 26.6696C153.52 28.1696 154.94 29.8796 156.45 31.8096H150.83C148.868 29.3558 146.764 27.0185 144.53 24.8096C142.884 23.177 141.094 21.6975 139.18 20.3896C137.735 19.4015 136.156 18.6269 134.49 18.0896C133.087 17.6589 131.628 17.4366 130.16 17.4296V31.8296H125.19Z" fill="white"/>
<path d="M81.9501 4.5L78.5601 12.7" stroke="white" stroke-width="9" stroke-miterlimit="10" stroke-linecap="round"/>
<path d="M110.14 4.7998L113.54 12.9898" stroke="white" stroke-width="9" stroke-miterlimit="10" stroke-linecap="round"/>
</g>
<path d="M5.104 52.144C4.576 52.144 4.092 52.052 3.652 51.868C3.22 51.676 2.848 51.404 2.536 51.052C2.224 50.7 1.98 50.272 1.804 49.768C1.636 49.264 1.552 48.692 1.552 48.052C1.552 47.412 1.636 46.844 1.804 46.348C1.98 45.844 2.224 45.424 2.536 45.088C2.848 44.744 3.22 44.484 3.652 44.308C4.092 44.124 4.576 44.032 5.104 44.032C5.632 44.032 6.112 44.124 6.544 44.308C6.984 44.484 7.36 44.744 7.672 45.088C7.984 45.432 8.224 45.856 8.392 46.36C8.568 46.856 8.656 47.42 8.656 48.052C8.656 48.692 8.568 49.264 8.392 49.768C8.224 50.272 7.984 50.7 7.672 51.052C7.36 51.404 6.984 51.676 6.544 51.868C6.112 52.052 5.632 52.144 5.104 52.144ZM5.104 50.62C5.64 50.62 6.064 50.392 6.376 49.936C6.688 49.472 6.844 48.844 6.844 48.052C6.844 47.268 6.688 46.656 6.376 46.216C6.064 45.776 5.64 45.556 5.104 45.556C4.568 45.556 4.144 45.776 3.832 46.216C3.52 46.656 3.364 47.268 3.364 48.052C3.364 48.844 3.52 49.472 3.832 49.936C4.144 50.392 4.568 50.62 5.104 50.62ZM9.98313 52V46.048H11.7471V48.196H13.6551V46.048H15.4191V52H13.6551V49.732H11.7471V52H9.98313ZM16.9675 52.144C16.8315 52.144 16.7075 52.132 16.5955 52.108C16.4835 52.084 16.3715 52.052 16.2595 52.012L16.5475 50.428C16.5955 50.444 16.6435 50.456 16.6915 50.464C16.7395 50.472 16.7915 50.476 16.8475 50.476C17.0075 50.476 17.1435 50.412 17.2555 50.284C17.3755 50.148 17.4555 49.916 17.4955 49.588C17.5755 48.996 17.6435 48.408 17.6995 47.824C17.7635 47.24 17.8315 46.648 17.9035 46.048H22.2955V52H20.5315V47.428H19.2955C19.2395 47.868 19.1835 48.312 19.1275 48.76C19.0795 49.2 19.0235 49.64 18.9595 50.08C18.8635 50.752 18.6515 51.264 18.3235 51.616C17.9955 51.968 17.5435 52.144 16.9675 52.144ZM25.3464 52.144C25.0744 52.144 24.8264 52.096 24.6024 52C24.3864 51.912 24.2024 51.788 24.0504 51.628C23.8984 51.46 23.7784 51.268 23.6904 51.052C23.6104 50.836 23.5704 50.6 23.5704 50.344C23.5704 49.72 23.8344 49.232 24.3624 48.88C24.8904 48.528 25.7424 48.292 26.9184 48.172C26.9024 47.908 26.8224 47.7 26.6784 47.548C26.5424 47.388 26.3104 47.308 25.9824 47.308C25.7264 47.308 25.4704 47.356 25.2144 47.452C24.9664 47.548 24.6984 47.68 24.4104 47.848L23.7744 46.684C24.1584 46.452 24.5584 46.264 24.9744 46.12C25.3984 45.976 25.8464 45.904 26.3184 45.904C27.0864 45.904 27.6704 46.124 28.0704 46.564C28.4784 46.996 28.6824 47.672 28.6824 48.592V52H27.2424L27.1224 51.388H27.0744C26.8184 51.612 26.5504 51.796 26.2704 51.94C25.9904 52.076 25.6824 52.144 25.3464 52.144ZM25.9464 50.776C26.1464 50.776 26.3184 50.732 26.4624 50.644C26.6064 50.556 26.7584 50.432 26.9184 50.272V49.228C26.2944 49.316 25.8624 49.444 25.6224 49.612C25.3824 49.78 25.2624 49.98 25.2624 50.212C25.2624 50.404 25.3224 50.548 25.4424 50.644C25.5704 50.732 25.7384 50.776 25.9464 50.776ZM30.1745 52V46.048H31.8785V47.704C31.8785 48 31.8625 48.336 31.8305 48.712C31.7985 49.08 31.7665 49.448 31.7345 49.816H31.7705C31.8665 49.632 31.9825 49.424 32.1185 49.192C32.2545 48.952 32.3665 48.744 32.4545 48.568L34.0025 46.048H35.6105V52H33.9065V50.344C33.9065 50.04 33.9225 49.704 33.9545 49.336C33.9865 48.968 34.0225 48.6 34.0625 48.232H34.0145C33.9185 48.416 33.8025 48.628 33.6665 48.868C33.5385 49.108 33.4265 49.312 33.3305 49.48L31.7825 52H30.1745ZM32.9465 45.136C32.2505 45.136 31.7345 44.96 31.3985 44.608C31.0705 44.248 30.8985 43.768 30.8825 43.168H32.2505C32.2665 43.504 32.3225 43.76 32.4185 43.936C32.5145 44.112 32.6905 44.2 32.9465 44.2C33.2025 44.2 33.3785 44.112 33.4745 43.936C33.5705 43.76 33.6265 43.504 33.6425 43.168H35.0105C34.9945 43.768 34.8185 44.248 34.4825 44.608C34.1545 44.96 33.6425 45.136 32.9465 45.136ZM37.1706 52V46.048H38.9346V48.196H40.8426V46.048H42.6066V52H40.8426V49.732H38.9346V52H37.1706ZM46.5573 52V46.048H48.5733L49.3173 48.088C49.3973 48.328 49.4693 48.56 49.5333 48.784C49.6053 49 49.6733 49.212 49.7373 49.42H49.7853C49.8573 49.212 49.9293 49 50.0013 48.784C50.0733 48.56 50.1453 48.328 50.2173 48.088L50.9133 46.048H52.9173V52H51.3573V50.476C51.3573 50.316 51.3613 50.124 51.3693 49.9C51.3853 49.676 51.4013 49.444 51.4173 49.204C51.4413 48.964 51.4613 48.732 51.4773 48.508C51.5013 48.276 51.5213 48.076 51.5373 47.908H51.4893C51.4013 48.172 51.3053 48.452 51.2013 48.748C51.0973 49.044 51.0013 49.32 50.9133 49.576L50.2173 51.484H49.2573L48.5493 49.576C48.4613 49.32 48.3613 49.044 48.2493 48.748C48.1453 48.444 48.0493 48.164 47.9613 47.908H47.9133C47.9293 48.076 47.9453 48.276 47.9613 48.508C47.9853 48.732 48.0053 48.964 48.0213 49.204C48.0453 49.444 48.0653 49.676 48.0813 49.9C48.0973 50.124 48.1053 50.316 48.1053 50.476V52H46.5573ZM55.9792 52.144C55.7072 52.144 55.4592 52.096 55.2352 52C55.0192 51.912 54.8352 51.788 54.6832 51.628C54.5312 51.46 54.4112 51.268 54.3232 51.052C54.2432 50.836 54.2032 50.6 54.2032 50.344C54.2032 49.72 54.4672 49.232 54.9952 48.88C55.5232 48.528 56.3752 48.292 57.5512 48.172C57.5352 47.908 57.4552 47.7 57.3112 47.548C57.1752 47.388 56.9432 47.308 56.6152 47.308C56.3592 47.308 56.1032 47.356 55.8472 47.452C55.5992 47.548 55.3312 47.68 55.0432 47.848L54.4072 46.684C54.7912 46.452 55.1912 46.264 55.6072 46.12C56.0312 45.976 56.4792 45.904 56.9512 45.904C57.7192 45.904 58.3032 46.124 58.7032 46.564C59.1112 46.996 59.3152 47.672 59.3152 48.592V52H57.8752L57.7552 51.388H57.7072C57.4512 51.612 57.1832 51.796 56.9032 51.94C56.6232 52.076 56.3152 52.144 55.9792 52.144ZM56.5792 50.776C56.7792 50.776 56.9512 50.732 57.0952 50.644C57.2392 50.556 57.3912 50.432 57.5512 50.272V49.228C56.9272 49.316 56.4952 49.444 56.2552 49.612C56.0152 49.78 55.8952 49.98 55.8952 50.212C55.8952 50.404 55.9552 50.548 56.0752 50.644C56.2032 50.732 56.3712 50.776 56.5792 50.776ZM60.8073 52V46.048H64.8993V47.428H62.5713V52H60.8073ZM67.03 52.144C66.758 52.144 66.51 52.096 66.286 52C66.07 51.912 65.886 51.788 65.734 51.628C65.582 51.46 65.462 51.268 65.374 51.052C65.294 50.836 65.254 50.6 65.254 50.344C65.254 49.72 65.518 49.232 66.046 48.88C66.574 48.528 67.426 48.292 68.602 48.172C68.586 47.908 68.506 47.7 68.362 47.548C68.226 47.388 67.994 47.308 67.666 47.308C67.41 47.308 67.154 47.356 66.898 47.452C66.65 47.548 66.382 47.68 66.094 47.848L65.458 46.684C65.842 46.452 66.242 46.264 66.658 46.12C67.082 45.976 67.53 45.904 68.002 45.904C68.77 45.904 69.354 46.124 69.754 46.564C70.162 46.996 70.366 47.672 70.366 48.592V52H68.926L68.806 51.388H68.758C68.502 51.612 68.234 51.796 67.954 51.94C67.674 52.076 67.366 52.144 67.03 52.144ZM67.63 50.776C67.83 50.776 68.002 50.732 68.146 50.644C68.29 50.556 68.442 50.432 68.602 50.272V49.228C67.978 49.316 67.546 49.444 67.306 49.612C67.066 49.78 66.946 49.98 66.946 50.212C66.946 50.404 67.006 50.548 67.126 50.644C67.254 50.732 67.422 50.776 67.63 50.776ZM73.7181 52.144C73.3101 52.144 72.9181 52.096 72.5421 52C72.1741 51.904 71.7981 51.716 71.4141 51.436L72.0981 50.32C72.3461 50.488 72.5981 50.612 72.8541 50.692C73.1101 50.764 73.3421 50.8 73.5501 50.8C73.8621 50.8 74.1221 50.74 74.3301 50.62C74.5461 50.5 74.6541 50.336 74.6541 50.128C74.6541 49.736 74.3501 49.54 73.7421 49.54H72.7941V48.376H73.6341C74.1941 48.376 74.4741 48.184 74.4741 47.8C74.4741 47.432 74.1741 47.248 73.5741 47.248C73.3181 47.248 73.0781 47.276 72.8541 47.332C72.6301 47.388 72.4021 47.492 72.1701 47.644L71.5221 46.516C71.8501 46.308 72.1941 46.156 72.5541 46.06C72.9141 45.956 73.2941 45.904 73.6941 45.904C74.0141 45.904 74.3221 45.94 74.6181 46.012C74.9141 46.076 75.1741 46.176 75.3981 46.312C75.6301 46.448 75.8141 46.624 75.9501 46.84C76.0861 47.056 76.1541 47.312 76.1541 47.608C76.1541 47.848 76.0781 48.088 75.9261 48.328C75.7821 48.568 75.5461 48.74 75.2181 48.844V48.892C75.5781 48.988 75.8621 49.148 76.0701 49.372C76.2781 49.588 76.3821 49.9 76.3821 50.308C76.3821 50.612 76.3061 50.88 76.1541 51.112C76.0021 51.336 75.8021 51.524 75.5541 51.676C75.3061 51.828 75.0221 51.944 74.7021 52.024C74.3821 52.104 74.0541 52.144 73.7181 52.144ZM77.5652 52V46.048H79.2692V47.704C79.2692 48 79.2532 48.336 79.2212 48.712C79.1892 49.08 79.1572 49.448 79.1252 49.816H79.1612C79.2572 49.632 79.3732 49.424 79.5092 49.192C79.6452 48.952 79.7572 48.744 79.8452 48.568L81.3932 46.048H83.0012V52H81.2972V50.344C81.2972 50.04 81.3132 49.704 81.3452 49.336C81.3772 48.968 81.4132 48.6 81.4532 48.232H81.4052C81.3092 48.416 81.1932 48.628 81.0572 48.868C80.9292 49.108 80.8172 49.312 80.7212 49.48L79.1732 52H77.5652ZM84.5613 52V46.048H86.3253V48.196H88.2333V46.048H89.9973V52H88.2333V49.732H86.3253V52H84.5613ZM93.948 52V46.048H95.712V48.196H97.62V46.048H99.384V52H97.62V49.732H95.712V52H93.948ZM102.432 52.144C102.16 52.144 101.912 52.096 101.688 52C101.472 51.912 101.288 51.788 101.136 51.628C100.984 51.46 100.864 51.268 100.776 51.052C100.696 50.836 100.656 50.6 100.656 50.344C100.656 49.72 100.92 49.232 101.448 48.88C101.976 48.528 102.828 48.292 104.004 48.172C103.988 47.908 103.908 47.7 103.764 47.548C103.628 47.388 103.396 47.308 103.068 47.308C102.812 47.308 102.556 47.356 102.3 47.452C102.052 47.548 101.784 47.68 101.496 47.848L100.86 46.684C101.244 46.452 101.644 46.264 102.06 46.12C102.484 45.976 102.932 45.904 103.404 45.904C104.172 45.904 104.756 46.124 105.156 46.564C105.564 46.996 105.768 47.672 105.768 48.592V52H104.328L104.208 51.388H104.16C103.904 51.612 103.636 51.796 103.356 51.94C103.076 52.076 102.768 52.144 102.432 52.144ZM103.032 50.776C103.232 50.776 103.404 50.732 103.548 50.644C103.692 50.556 103.844 50.432 104.004 50.272V49.228C103.38 49.316 102.948 49.444 102.708 49.612C102.468 49.78 102.348 49.98 102.348 50.212C102.348 50.404 102.408 50.548 102.528 50.644C102.656 50.732 102.824 50.776 103.032 50.776ZM107.92 54.328C107.736 54.328 107.58 54.316 107.452 54.292C107.324 54.276 107.2 54.248 107.08 54.208L107.392 52.864C107.448 52.88 107.512 52.896 107.584 52.912C107.656 52.928 107.724 52.936 107.788 52.936C108.084 52.936 108.312 52.864 108.472 52.72C108.632 52.576 108.752 52.388 108.832 52.156L108.916 51.844L106.624 46.048H108.4L109.252 48.604C109.34 48.876 109.42 49.152 109.492 49.432C109.564 49.712 109.64 50 109.72 50.296H109.768C109.832 50.016 109.896 49.736 109.96 49.456C110.032 49.168 110.104 48.884 110.176 48.604L110.896 46.048H112.588L110.524 52.06C110.38 52.436 110.228 52.764 110.068 53.044C109.916 53.332 109.736 53.568 109.528 53.752C109.328 53.944 109.096 54.088 108.832 54.184C108.576 54.28 108.272 54.328 107.92 54.328ZM113.518 52V46.048H115.258V50.62H116.71V46.048H118.402V50.62H119.854V46.048H121.606V52H113.518ZM123.151 52V46.048H124.915V48.196H126.823V46.048H128.587V52H126.823V49.732H124.915V52H123.151ZM130.135 52V46.048H131.839V47.704C131.839 48 131.823 48.336 131.791 48.712C131.759 49.08 131.727 49.448 131.695 49.816H131.731C131.827 49.632 131.943 49.424 132.079 49.192C132.215 48.952 132.327 48.744 132.415 48.568L133.963 46.048H135.571V52H133.867V50.344C133.867 50.04 133.883 49.704 133.915 49.336C133.947 48.968 133.983 48.6 134.023 48.232H133.975C133.879 48.416 133.763 48.628 133.627 48.868C133.499 49.108 133.387 49.312 133.291 49.48L131.743 52H130.135ZM137.132 52V46.048H138.896V48.244H139.508L140.024 47.152C140.144 46.904 140.268 46.7 140.396 46.54C140.524 46.372 140.664 46.244 140.816 46.156C140.976 46.06 141.144 45.996 141.32 45.964C141.496 45.924 141.692 45.904 141.908 45.904C142.084 45.904 142.244 45.932 142.388 45.988L142.112 47.62C142.072 47.604 142.032 47.592 141.992 47.584C141.96 47.576 141.924 47.572 141.884 47.572C141.732 47.572 141.596 47.608 141.476 47.68C141.356 47.752 141.24 47.916 141.128 48.172L140.816 48.88L142.82 52H140.888L139.52 49.624H138.896V52H137.132ZM145.922 52.144C145.546 52.144 145.182 52.076 144.83 51.94C144.478 51.796 144.166 51.592 143.894 51.328C143.63 51.064 143.418 50.74 143.258 50.356C143.098 49.964 143.018 49.52 143.018 49.024C143.018 48.528 143.098 48.088 143.258 47.704C143.418 47.312 143.63 46.984 143.894 46.72C144.166 46.456 144.478 46.256 144.83 46.12C145.182 45.976 145.546 45.904 145.922 45.904C146.298 45.904 146.658 45.976 147.002 46.12C147.354 46.256 147.662 46.456 147.926 46.72C148.198 46.984 148.414 47.312 148.574 47.704C148.734 48.088 148.814 48.528 148.814 49.024C148.814 49.52 148.734 49.964 148.574 50.356C148.414 50.74 148.198 51.064 147.926 51.328C147.662 51.592 147.354 51.796 147.002 51.94C146.658 52.076 146.298 52.144 145.922 52.144ZM145.922 50.716C146.282 50.716 146.554 50.564 146.738 50.26C146.922 49.956 147.014 49.544 147.014 49.024C147.014 48.504 146.922 48.092 146.738 47.788C146.554 47.484 146.282 47.332 145.922 47.332C145.554 47.332 145.278 47.484 145.094 47.788C144.918 48.092 144.83 48.504 144.83 49.024C144.83 49.544 144.918 49.956 145.094 50.26C145.278 50.564 145.554 50.716 145.922 50.716ZM150.022 52V46.048H152.554C152.89 46.048 153.202 46.076 153.49 46.132C153.778 46.18 154.03 46.268 154.246 46.396C154.462 46.516 154.63 46.676 154.75 46.876C154.878 47.076 154.942 47.324 154.942 47.62C154.942 47.876 154.866 48.12 154.714 48.352C154.562 48.584 154.306 48.748 153.946 48.844V48.892C154.322 48.98 154.618 49.132 154.834 49.348C155.058 49.564 155.17 49.876 155.17 50.284C155.17 50.588 155.102 50.852 154.966 51.076C154.838 51.292 154.662 51.468 154.438 51.604C154.214 51.74 153.95 51.84 153.646 51.904C153.35 51.968 153.034 52 152.698 52H150.022ZM151.738 48.376H152.434C152.73 48.376 152.942 48.328 153.07 48.232C153.198 48.128 153.262 47.984 153.262 47.8C153.262 47.616 153.198 47.472 153.07 47.368C152.95 47.264 152.742 47.212 152.446 47.212H151.738V48.376ZM151.738 50.836H152.59C152.91 50.836 153.134 50.776 153.262 50.656C153.398 50.528 153.466 50.364 153.466 50.164C153.466 49.988 153.394 49.84 153.25 49.72C153.114 49.6 152.89 49.54 152.578 49.54H151.738V50.836Z" fill="white"/>
<defs>
<clipPath id="clip0">
<rect width="156.45" height="34.36" fill="white"/>
</clipPath>
</defs>
</svg>
