<svg width="80" height="80" viewBox="0 0 80 80" fill="none" xmlns="http://www.w3.org/2000/svg">
<path d="M22.5381 38.5569H18.6694C18.5025 38.5569 18.367 38.4216 18.367 38.2545V33.2628C18.367 33.0959 18.2317 32.9604 18.0647 32.9604H14.3717C14.2048 32.9604 14.0693 33.0958 14.0693 33.2628V46.7379C14.0693 46.9047 14.2046 47.0402 14.3717 47.0402H18.0647C18.2315 47.0402 18.367 46.9049 18.367 46.7379V41.8049C18.367 41.638 18.5023 41.5025 18.6694 41.5025H22.5381C22.705 41.5025 22.8405 41.6378 22.8405 41.8049V46.7379C22.8405 46.9047 22.9758 47.0402 23.1428 47.0402H26.8363C27.0031 47.0402 27.1386 46.9049 27.1386 46.7379V33.2628C27.1386 33.0959 27.0033 32.9604 26.8363 32.9604H23.1428C22.9759 32.9604 22.8405 33.0958 22.8405 33.2628V38.2547C22.8403 38.4216 22.705 38.5569 22.5381 38.5569Z" fill="#C2C5C8"/>
<path d="M30.619 47.0402H34.3115C34.4784 47.0402 34.6139 46.9049 34.6139 46.7379V33.2628C34.6139 33.0959 34.4785 32.9604 34.3115 32.9604H30.619C30.4521 32.9604 30.3167 33.0958 30.3167 33.2628V46.7379C30.3167 46.9047 30.452 47.0402 30.619 47.0402Z" fill="#C2C5C8"/>
<path d="M5.23924 32.666C3.63376 32.666 1.71673 32.7699 0.269845 32.9295C0.11625 32.9463 0 33.0755 0 33.2301V46.7378C0 46.9047 0.135313 47.0401 0.302345 47.0401H3.99486C4.16174 47.0401 4.2972 46.9048 4.2972 46.7378V43.9847C4.2972 43.8178 4.43252 43.6823 4.59955 43.6823H5.82815C9.83066 43.6823 12.3624 41.6201 12.3624 38.0267C12.3624 34.0796 9.65426 32.666 5.23924 32.666ZM5.00408 41.1492H4.59939C4.43252 41.1492 4.29705 41.0139 4.29705 40.8468V35.6223C4.29705 35.4582 4.42861 35.3232 4.59267 35.3196C4.73502 35.3165 4.87205 35.3165 5.00408 35.3165C7.12315 35.3165 8.12378 36.3179 8.12378 38.0853C8.12363 39.9121 7.24019 41.1492 5.00408 41.1492Z" fill="#C2C5C8"/>
<path d="M60.516 32.666C58.9109 32.666 56.9933 32.7699 55.5472 32.9295C55.3936 32.9463 55.2773 33.0755 55.2773 33.2301V46.7379C55.2773 46.9048 55.4127 47.0403 55.5797 47.0403H59.2716C59.4385 47.0403 59.5739 46.905 59.5739 46.7379V43.9847C59.5739 43.8178 59.7092 43.6823 59.8763 43.6823H61.1047C65.1072 43.6823 67.6394 41.6201 67.6394 38.0267C67.6391 34.0796 64.9305 32.666 60.516 32.666ZM60.2802 41.1492H59.876C59.7091 41.1492 59.5736 41.0139 59.5736 40.8468V35.6223C59.5736 35.4582 59.7052 35.3232 59.8692 35.3196C60.0114 35.3165 60.1485 35.3165 60.2802 35.3165C62.3992 35.3165 63.4003 36.3179 63.4003 38.0853C63.4003 39.9121 62.5169 41.1492 60.2802 41.1492Z" fill="#C2C5C8"/>
<path d="M41.7878 32.9604H38.0948C37.9279 32.9604 37.7925 33.0958 37.7925 33.2628V46.7379C37.7925 46.9047 37.9278 47.0402 38.0948 47.0402H45.322C45.463 47.0402 45.5852 46.9427 45.6167 46.8054L46.1256 44.5824C46.1689 44.3932 46.0252 44.2127 45.8309 44.2127H42.3923C42.2255 44.2127 42.09 44.0774 42.09 43.9103V33.2628C42.0902 33.0959 41.9548 32.9604 41.7878 32.9604Z" fill="#C2C5C8"/>
<path d="M73.2315 36.5538C73.2315 35.7881 73.9963 35.4343 75.2324 35.4343C76.3954 35.4343 77.6449 35.652 78.6087 35.9748C78.8178 36.0448 79.0275 35.8723 79.0023 35.6532L78.7307 33.2949C78.7159 33.1654 78.6195 33.0598 78.4918 33.0335C77.4554 32.8205 76.4692 32.666 74.7615 32.666C71.288 32.666 68.9333 34.0354 68.9333 36.9071C68.9333 41.8557 75.6443 40.8543 75.6443 43.1517C75.6443 44.0361 74.9971 44.5069 73.4071 44.5069C72.1616 44.5069 70.3209 44.1408 69.0151 43.6095C68.7976 43.5211 68.5665 43.6995 68.6002 43.9318L68.9651 46.4451C68.9813 46.557 69.0574 46.6519 69.1646 46.6881C70.4416 47.1191 72.1157 47.3345 73.4659 47.3345C77.0568 47.3345 80.0001 46.1567 80.0001 42.6215C80.0004 37.9087 73.2315 38.7924 73.2315 36.5538Z" fill="#C2C5C8"/>
<path d="M48.0436 47.0402H51.7365C51.9034 47.0402 52.0389 46.9049 52.0389 46.7379V33.2628C52.0389 33.0959 51.9036 32.9604 51.7365 32.9604H48.0436C47.8767 32.9604 47.7412 33.0958 47.7412 33.2628V46.7379C47.7414 46.9047 47.8767 47.0402 48.0436 47.0402Z" fill="#C2C5C8"/>
</svg>
