<svg width="50" height="50" viewBox="0 0 50 50" fill="none" xmlns="http://www.w3.org/2000/svg">
<path d="M37.3601 31.1501V34.9001C37.3616 35.2482 37.2902 35.5928 37.1508 35.9118C37.0113 36.2308 36.8068 36.5171 36.5502 36.7525C36.2937 36.9878 35.9909 37.167 35.6611 37.2785C35.3313 37.39 34.9819 37.4315 34.6351 37.4001C30.7887 36.9822 27.0939 35.6678 23.8476 33.5626C20.8274 31.6435 18.2668 29.0828 16.3476 26.0626C14.2351 22.8016 12.9204 19.0889 12.5101 15.2251C12.4789 14.8795 12.52 14.5311 12.6308 14.2022C12.7416 13.8732 12.9196 13.571 13.1536 13.3146C13.3876 13.0583 13.6724 12.8535 13.9899 12.7133C14.3074 12.573 14.6506 12.5004 14.9976 12.5001H18.7476C19.3543 12.4942 19.9424 12.709 20.4023 13.1045C20.8623 13.5001 21.1627 14.0494 21.2476 14.6501C21.4059 15.8502 21.6995 17.0285 22.1226 18.1626C22.2908 18.61 22.3272 19.0963 22.2275 19.5637C22.1278 20.0312 21.8962 20.4603 21.5601 20.8001L19.9726 22.3876C21.7521 25.5171 24.3432 28.1082 27.4726 29.8876L29.0601 28.3001C29.4 27.964 29.8291 27.7324 30.2965 27.6327C30.764 27.533 31.2502 27.5694 31.6976 27.7376C32.8317 28.1608 34.0101 28.4543 35.2101 28.6126C35.8174 28.6983 36.3719 29.0041 36.7683 29.472C37.1647 29.9398 37.3754 30.5371 37.3601 31.1501Z" stroke="white" stroke-width="2" stroke-linecap="round" stroke-linejoin="round"/>
</svg>
