<svg width="70" height="70" viewBox="0 0 70 70" fill="none" xmlns="http://www.w3.org/2000/svg">
    <g clip-path="url(#clip0)">
        <path
            d="M55.0374 35.6226C55.6035 35.6226 56.0627 35.1639 56.0627 34.5972V32.2949C56.0627 31.7283 55.6035 31.2695 55.0374 31.2695C54.4707 31.2695 54.012 31.7283 54.012 32.2949V34.5972C54.012 35.1639 54.4707 35.6226 55.0374 35.6226Z"
            fill="white" />
        <path
            d="M66.4639 35.7969H63.65C62.9295 32.976 61.6125 30.2929 59.8128 27.9922C57.9996 25.6749 55.6877 23.7315 53.0986 22.3434V14.9024C53.0986 14.2808 52.8305 13.6891 52.3627 13.2789C51.8964 12.8698 51.2769 12.6813 50.6622 12.7619C46.628 13.2955 43.3003 16.0384 41.9865 19.8409H40.9045C40.9211 19.6085 40.9296 19.3752 40.9296 19.1396C40.9296 13.9534 36.7116 9.73438 31.5265 9.73438C26.3403 9.73438 22.1212 13.9534 22.1212 19.1396C22.1212 19.8579 22.2045 20.5661 22.3637 21.2524C18.6173 22.6847 15.3633 25.1195 12.9098 28.3366C12.5664 28.7868 12.6529 29.4304 13.1037 29.7738C13.289 29.9153 13.5074 29.9837 13.7243 29.9837C14.0335 29.9837 14.3384 29.8448 14.5408 29.5804C16.7502 26.6832 19.6752 24.4871 23.043 23.1883C23.5012 24.1453 24.1186 25.0239 24.8711 25.7812C24.7637 25.8084 24.6569 25.8372 24.5501 25.8666C24.0043 26.0177 23.6844 26.5822 23.835 27.1286C23.961 27.5825 24.3733 27.8805 24.823 27.8805C24.9133 27.8805 25.0057 27.8683 25.097 27.8432C25.8569 27.6327 26.6367 27.4827 27.4142 27.3967C28.5844 27.268 27.905 27.307 39.7963 27.3059C40.363 27.3059 40.8217 26.8471 40.8217 26.2805C40.8217 25.7144 40.363 25.2551 39.7963 25.2551H38.6786C39.5213 24.2741 40.1493 23.1306 40.5248 21.8916H42.7449C43.21 21.8916 43.617 21.5787 43.7361 21.129C44.6343 17.7404 47.4584 15.2544 50.9298 14.7956C50.941 14.7935 50.9752 14.7898 51.0104 14.8207C51.0355 14.8426 51.0478 14.8699 51.0478 14.903V22.9678C51.0478 23.3571 51.2679 23.7128 51.6166 23.8858C56.813 26.4696 60.6325 31.3855 61.8342 37.0364C61.9346 37.5096 62.3527 37.8482 62.8371 37.8482H66.4639C66.9873 37.8482 67.4129 38.2738 67.4129 38.7966V46.3861C67.4129 46.9084 66.9873 47.3335 66.4639 47.3335H62.5332C61.7482 47.3335 61.04 47.8014 60.7287 48.5277C60.4237 49.2433 60.0712 49.9493 59.6803 50.6249C59.3962 51.1147 59.5634 51.7422 60.0536 52.0258C60.2154 52.1197 60.3922 52.1641 60.5663 52.1641C60.9204 52.1641 61.2649 51.9804 61.4544 51.6524C61.8785 50.9208 62.2614 50.1571 62.5925 49.3843H66.4639C68.1179 49.3843 69.4637 48.0396 69.4637 46.3861V38.7966C69.4637 37.1427 68.1179 35.7969 66.4639 35.7969ZM27.543 25.3229C25.4559 23.9739 24.1715 21.6337 24.1715 19.1396C24.1715 15.0846 27.4709 11.7857 31.5259 11.7857C35.5805 11.7857 38.8788 15.0846 38.8788 19.1396C38.8788 19.6331 38.8308 20.1175 38.7373 20.588C38.725 20.6329 38.7154 20.6788 38.709 20.7258C38.3079 22.5661 37.2142 24.1849 35.6099 25.2551C29.2503 25.2765 28.8466 25.206 27.543 25.3229Z"
            fill="white" />
        <path
            d="M58.687 53.8852C58.2693 53.5033 57.6205 53.5322 57.2386 53.9503C56.3104 54.965 55.2711 55.8826 54.1496 56.6767C53.8874 56.862 53.7272 57.1595 53.717 57.4805C53.6449 59.7342 53.418 62.2442 53.0425 64.9401C52.8033 66.6587 51.3186 67.949 49.5845 67.949H49.5658C47.867 67.9399 46.4015 66.6449 46.1254 64.9225C45.9423 63.6013 45.7943 62.3206 45.6848 61.1152C45.6261 60.4781 45.5775 59.8613 45.5396 59.2813C45.4995 58.6543 45.4701 58.0407 45.4515 57.4575C45.4338 56.8914 44.9548 56.4433 44.3946 56.4652C43.8285 56.4828 43.3841 56.9565 43.4017 57.5221C43.421 58.1272 43.4514 58.7633 43.4931 59.4127C43.5091 59.6621 43.5273 59.9179 43.5475 60.1785C43.4007 60.1817 43.2543 60.1838 43.1096 60.1838H29.7849C29.0997 60.1838 28.3884 60.1438 27.6695 60.0648C27.3955 60.0343 27.121 60.116 26.908 60.2907C26.6949 60.4648 26.5608 60.7179 26.5363 60.9924C26.422 62.2661 26.2687 63.5943 26.0812 64.9401C25.8425 66.6555 24.3562 67.949 22.6238 67.949C20.8918 67.949 19.405 66.6555 19.1663 64.9401C19.162 64.9118 19.1583 64.8835 19.1545 64.8552C19.1529 64.8451 19.1513 64.8344 19.1503 64.8243C19.1487 64.8146 19.1476 64.805 19.146 64.7954C18.943 63.3166 18.7091 61.3257 18.5756 59.2183C18.3118 54.9629 18.6055 52.4026 18.8597 51.091C18.9671 50.5351 18.6039 49.9973 18.048 49.8894C17.4915 49.782 16.9537 50.1452 16.8463 50.7011C16.606 51.9418 16.4789 53.3207 16.434 54.7573C12.7411 51.1765 10.6529 46.3037 10.639 41.0897C10.6385 41.0054 10.639 40.9215 10.6401 40.8371C10.6401 40.8366 10.6401 40.8361 10.6401 40.8355C10.6401 40.8259 10.6401 40.8163 10.6401 40.8067C10.6727 38.1247 11.2671 35.5302 12.4099 33.0906C12.6503 32.5774 12.4292 31.967 11.9165 31.7267C11.4032 31.4869 10.7933 31.708 10.553 32.2207C9.4283 34.6218 8.78209 37.1586 8.62562 39.7781C5.66961 39.8251 3.5916 40.4531 2.12882 41.7279C0.660702 43.0107 0.0743085 44.8409 0.599285 46.5056C1.38275 48.989 4.26665 49.8221 6.01728 48.0357C6.64373 47.3964 6.9428 46.5601 6.83813 45.7403C6.76603 45.1785 6.25334 44.7822 5.69098 44.8532C5.12915 44.9248 4.73181 45.4386 4.80391 46.0004C4.83916 46.2749 4.63995 46.5115 4.5529 46.6001C4.32272 46.8351 3.99642 46.9681 3.72245 46.9387C3.18038 46.8805 2.74459 46.488 2.55553 45.8888C2.27515 45.0001 2.62015 44.0222 3.47731 43.2735C4.53421 42.3517 6.21542 41.8775 8.60265 41.8305C8.82695 47.9662 11.651 53.6182 16.4389 57.5002C16.5174 60.0279 16.7844 62.7089 17.1347 65.2227C17.5139 67.9464 19.8739 69.9998 22.6238 69.9998C25.3736 69.9998 27.7331 67.9464 28.1123 65.2227C28.2548 64.1983 28.3782 63.1831 28.4802 62.193C28.9213 62.2207 29.3571 62.2346 29.7849 62.2346H43.1091C43.3147 62.2346 43.5224 62.2314 43.7313 62.2255C43.8295 63.174 43.947 64.146 44.0821 65.1249C44.0864 65.157 44.0912 65.1896 44.0966 65.2216V65.2227C44.0982 65.2328 44.0998 65.243 44.1014 65.2531C44.5372 67.9538 46.8592 69.9854 49.5546 69.9998C49.5648 69.9998 49.5744 70.0003 49.5845 69.9998C52.3365 69.9998 54.6933 67.9512 55.0735 65.2232C55.4314 62.6533 55.6578 60.2431 55.7481 58.0498C56.8317 57.2428 57.84 56.3312 58.7516 55.3341C59.134 54.9159 59.1051 54.2676 58.687 53.8852Z"
            fill="white" />
        <path
            d="M32.2341 18.1136H30.8173C30.507 18.1136 30.2544 17.861 30.2544 17.5507C30.2544 17.2409 30.507 16.9883 30.8173 16.9883H33.5287C34.0953 16.9883 34.5541 16.5296 34.5541 15.9629C34.5541 15.3968 34.0953 14.9375 33.5287 14.9375H32.7036V14.4302C32.7036 13.8635 32.2448 13.4048 31.6782 13.4048C31.1121 13.4048 30.6528 13.8635 30.6528 14.4302V14.9429C29.2883 15.0278 28.2036 16.1653 28.2036 17.5512C28.2036 18.9921 29.3759 20.1644 30.8173 20.1644H32.2341C32.5439 20.1644 32.7965 20.417 32.7965 20.7267C32.7965 21.037 32.5439 21.2891 32.2341 21.2891H29.5222C28.9561 21.2891 28.4968 21.7484 28.4968 22.3145C28.4968 22.8811 28.9561 23.3399 29.5222 23.3399H30.6528V23.8477C30.6528 24.4139 31.1121 24.8731 31.6782 24.8731C32.2448 24.8731 32.7036 24.4139 32.7036 23.8477V23.2977C33.9212 23.076 34.8473 22.0074 34.8473 20.7267C34.8473 19.2858 33.675 18.1136 32.2341 18.1136Z"
            fill="white" />
        <path
            d="M13.0241 18.809C18.2098 18.809 22.4288 14.5905 22.4288 9.40422C22.4288 4.21852 18.2098 0 13.0241 0C11.1399 0 9.32147 0.55542 7.76523 1.60698C7.29579 1.92368 7.17242 2.56081 7.48965 3.03024C7.80635 3.49968 8.44402 3.62305 8.91345 3.30635C10.129 2.48497 11.5506 2.05078 13.0241 2.05078C17.0792 2.05078 20.3781 5.34966 20.3781 9.40422C20.3781 13.4593 17.0792 16.7582 13.0241 16.7582C8.96953 16.7582 5.67065 13.4593 5.67065 9.40422C5.67065 8.22823 5.93982 7.1051 6.47014 6.06583C6.72755 5.56168 6.52782 4.94377 6.02313 4.68636C5.51898 4.42894 4.90161 4.62868 4.64366 5.13336C3.97395 6.44501 3.61987 7.92221 3.61987 9.40422C3.61987 14.5905 7.83839 18.809 13.0241 18.809Z"
            fill="white" />
        <path
            d="M13.1769 3.67041C12.6108 3.67041 12.1515 4.12917 12.1515 4.6958V5.2085C10.787 5.29341 9.70288 6.43095 9.70288 7.81683C9.70288 9.25772 10.8746 10.43 12.316 10.43H13.7329C14.0426 10.43 14.2952 10.6821 14.2952 10.9923C14.2952 11.3026 14.0426 11.5547 13.7329 11.5547H11.0215C10.4548 11.5547 9.99608 12.0135 9.99608 12.5801C9.99608 13.1467 10.4548 13.6055 11.0215 13.6055H12.1521V14.1128C12.1521 14.6795 12.6108 15.1382 13.1775 15.1382C13.7436 15.1382 14.2029 14.6795 14.2029 14.1128V13.5633C15.42 13.3417 16.346 12.273 16.346 10.9923C16.346 9.55145 15.1738 8.3792 13.7329 8.3792H12.316C12.0057 8.3792 11.7537 8.12659 11.7537 7.81683C11.7537 7.50655 12.0057 7.25447 12.316 7.25447H15.0274C15.5941 7.25447 16.0528 6.79518 16.0528 6.22908C16.0528 5.66244 15.5941 5.20369 15.0274 5.20369H14.2029V4.6958C14.2023 4.12917 13.7436 3.67041 13.1769 3.67041Z"
            fill="white" />
    </g>
    <defs>
        <clipPath id="clip0">
            <rect width="70" height="70" fill="white" />
        </clipPath>
    </defs>
</svg>