<svg width="80" height="80" viewBox="0 0 80 80" fill="none" xmlns="http://www.w3.org/2000/svg">
<path d="M75.5641 39.946V41.0396C75.5641 41.219 75.7095 41.3644 75.8888 41.3644H76.5118C76.6315 41.3644 76.7287 41.4615 76.7287 41.5812V43.0209C76.7342 43.169 76.7253 43.3284 76.7013 43.4557C76.653 43.7653 76.3622 44.289 75.5356 44.289C74.7124 44.289 74.4269 43.7653 74.3754 43.4557C74.3546 43.3284 74.3447 43.1693 74.3447 43.0209V37.7924C74.3447 37.6058 74.3579 37.405 74.3973 37.2535C74.4534 36.9746 74.6994 36.4235 75.5291 36.4235C76.3997 36.4235 76.6159 37.002 76.6642 37.2535C76.6981 37.417 76.7015 37.6937 76.7015 37.6937V38.0337C76.7015 38.1957 76.8328 38.327 76.9949 38.327H79.1985C79.4012 38.327 79.5656 38.1626 79.5656 37.9599V37.9517C79.5656 37.9517 79.5776 37.5599 79.5437 37.1942C79.3296 35.0482 77.571 34.3721 75.5523 34.3721C73.5324 34.3721 71.8102 35.056 71.5598 37.1942C71.5379 37.3917 71.5027 37.7441 71.5027 37.9517V42.7629C71.5027 42.9703 71.5082 43.1328 71.5465 43.517C71.7255 45.5137 73.3841 46.2755 75.2899 46.336L79.2923 44.5204C79.424 44.2283 79.5119 43.8947 79.5492 43.517C79.5799 43.1328 79.5831 42.9703 79.5909 42.7629V39.9591C79.5909 39.8137 79.4731 39.6959 79.3277 39.6959H75.8146C75.6762 39.6957 75.5641 39.8078 75.5641 39.946Z" fill="#C2C5C8"/>
<path d="M8.14069 42.079C7.66313 39.676 3.34589 38.9669 3.02197 37.6267C2.96928 37.3972 2.98129 37.1536 3.01101 37.0273C3.09109 36.6619 3.33598 36.2555 4.05064 36.2555C4.71915 36.2555 5.11114 36.6726 5.11114 37.2962V37.7531C5.11114 37.8912 5.22305 38.0033 5.36131 38.0033H7.59042C7.78832 38.0033 7.9487 37.8429 7.9487 37.645V37.1976C7.9487 34.7124 5.71811 34.3149 4.10776 34.3149C3.86518 34.3149 3.62809 34.3238 3.39963 34.3457L0.716766 35.5225C0.42361 35.876 0.221711 36.3129 0.133828 36.8564C0.05037 37.37 0.0370929 37.8202 0.1568 38.3987C0.648483 40.7357 4.69365 41.4152 5.28206 42.8927C5.39186 43.1695 5.35667 43.5208 5.30293 43.737C5.20956 44.1235 4.95266 44.5098 4.19206 44.5098C3.48288 44.5098 3.0559 44.0949 3.0559 43.4702L3.05231 42.5975C3.05189 42.4712 2.94947 42.3692 2.82323 42.3692H0.306854C0.13741 42.3692 0 42.5066 0 42.6761V43.2441C0 45.8007 1.99687 46.5701 4.1341 46.5701C6.19124 46.5701 7.88063 45.8664 8.15502 43.952C8.29222 42.9661 8.18896 42.3205 8.14069 42.079Z" fill="#C2C5C8"/>
<path d="M16.2501 45.8803L14.8147 36.0738C14.801 35.9807 14.6668 35.9805 14.6529 36.0736L13.177 45.9134C13.1595 46.0308 13.0585 46.1174 12.9399 46.1174H10.3013C10.183 46.1174 10.0937 46.0101 10.115 45.8938L12.1167 35.0293C12.1542 34.826 12.3316 34.6782 12.5384 34.6782H16.9393C17.1125 34.6782 17.2611 34.8019 17.2925 34.9724L19.2944 45.8841C19.3168 46.0055 19.2234 46.1176 19.0999 46.1176H16.5239C16.3867 46.1172 16.2702 46.0164 16.2501 45.8803Z" fill="#C2C5C8"/>
<path d="M31.4028 45.7445L31.3316 36.0672C31.3312 36.0048 31.2408 35.9968 31.2296 36.0582L29.414 45.8817C29.3887 46.0181 29.2698 46.1171 29.1311 46.1171H26.8417C26.6348 46.1171 26.4573 45.9694 26.4196 45.7658L24.6379 36.1146C24.6255 36.0468 24.5256 36.0556 24.5252 36.1245L24.4533 45.8903C24.4525 46.0157 24.3504 46.1171 24.2248 46.1171H21.9083C21.7432 46.1171 21.6103 45.9814 21.6138 45.8164L21.8482 35.0139C21.8522 34.8272 22.0048 34.6777 22.1917 34.6777H26.1775C26.3608 34.6777 26.517 34.8109 26.5461 34.992L27.8198 42.9249C27.8403 43.0517 28.0226 43.0517 28.043 42.9249L29.3208 34.9671C29.3476 34.8004 29.4913 34.6779 29.6601 34.6779H33.7569C33.8931 34.6779 34.0043 34.7867 34.0073 34.9228L34.2488 45.7234C34.2537 45.9394 34.0798 46.1173 33.8638 46.1173H31.7784C31.5721 46.1171 31.4045 45.9508 31.4028 45.7445Z" fill="#C2C5C8"/>
<path d="M45.108 43.9188C44.8391 45.8124 43.1606 46.5073 41.1265 46.5073C39.0057 46.5073 37.0352 45.7465 37.0352 43.2185V42.5837C37.0352 42.4518 37.1422 42.3447 37.2741 42.3447H39.7737C39.9296 42.3447 40.0563 42.4712 40.0563 42.6274V43.4425C40.0563 44.0594 40.4833 44.4689 41.1903 44.4689C41.9467 44.4689 42.2002 44.0879 42.2871 43.7081C42.3398 43.4973 42.3682 43.1439 42.2662 42.8672C41.6866 41.406 37.6822 40.7344 37.1947 38.4214C37.0685 37.8494 37.0872 37.4005 37.1662 36.8966C37.4682 35.0447 39.1037 34.3794 41.106 34.3794C42.6999 34.3794 44.8964 34.7657 44.8964 37.2323V37.7105C44.8964 37.8846 44.7552 38.0258 44.5811 38.0258H42.3819C42.2211 38.0258 42.0909 37.8956 42.0909 37.7348V37.3278C42.0909 36.712 41.7056 36.2991 41.0491 36.2991C40.3444 36.2991 40.0995 36.6987 40.016 37.0644C39.9897 37.1883 39.9777 37.4288 40.027 37.6572C40.3507 38.9788 44.6178 39.6924 45.0875 42.0657C45.1386 42.3041 45.2353 42.9407 45.108 43.9188Z" fill="#C2C5C8"/>
<path d="M55.7809 43.6343C55.579 45.7715 53.9061 46.4643 51.8104 46.4643C49.717 46.4643 48.043 45.7715 47.8453 43.6343C47.8322 43.5201 47.8168 43.0897 47.82 42.8792V35.1174C47.82 34.8749 48.0166 34.6782 48.2592 34.6782H50.298C50.5178 34.6782 50.6961 34.8565 50.6961 35.0763V43.1416C50.6906 43.2876 50.6961 43.4556 50.7246 43.5763C50.7796 43.8596 51.0253 44.4063 51.8101 44.4063C52.6038 44.4063 52.842 43.8596 52.9025 43.5763C52.9278 43.4556 52.9332 43.2876 52.9278 43.1416V35.0289C52.9278 34.8352 53.0848 34.6782 53.2785 34.6782H55.4121C55.6283 34.6782 55.8037 34.8536 55.8037 35.0698V42.8792C55.8161 43.0897 55.7984 43.5201 55.7809 43.6343Z" fill="#C2C5C8"/>
<path d="M68.1573 45.9978H64.7303C64.576 45.9978 64.4399 45.8969 64.3952 45.7491L61.7817 37.1233C61.7509 37.0215 61.6007 37.0451 61.6026 37.1513L61.7476 45.6299C61.7509 45.832 61.5882 45.9976 61.3861 45.9976H59.3195C59.1218 45.9976 58.9614 45.8372 58.9614 45.6395V35.0586C58.9614 34.8482 59.1319 34.6779 59.342 34.6779H62.8083C63.0304 34.6779 63.226 34.8246 63.2879 35.0379L65.7364 43.4572C65.756 43.5244 65.8553 43.5095 65.8543 43.4395L65.7156 35.0672C65.712 34.8533 65.8846 34.6777 66.0985 34.6777H68.2303C68.3906 34.6777 68.5205 34.8078 68.5205 34.9679V45.6347C68.5198 45.8355 68.3576 45.9978 68.1573 45.9978Z" fill="#C2C5C8"/>
</svg>
