<svg width="50" height="51" viewBox="0 0 50 51" fill="none" xmlns="http://www.w3.org/2000/svg">
<circle cx="25" cy="26" r="25" fill="white"/>
<path d="M13.75 17.5L17.5 12.5H32.5L36.25 17.5M13.75 17.5V35C13.75 35.663 14.0134 36.2989 14.4822 36.7678C14.9511 37.2366 15.587 37.5 16.25 37.5H33.75C34.413 37.5 35.0489 37.2366 35.5178 36.7678C35.9866 36.2989 36.25 35.663 36.25 35V17.5M13.75 17.5H36.25M30 22.5C30 23.8261 29.4732 25.0979 28.5355 26.0355C27.5979 26.9732 26.3261 27.5 25 27.5C23.6739 27.5 22.4021 26.9732 21.4645 26.0355C20.5268 25.0979 20 23.8261 20 22.5" stroke="#332233" stroke-width="2" stroke-linecap="round" stroke-linejoin="round"/>
</svg>
