<svg width="80" height="80" viewBox="0 0 80 80" fill="none" xmlns="http://www.w3.org/2000/svg">
<path d="M73.1765 33.6422V35.0813C73.1765 35.1489 73.2314 35.2038 73.299 35.2038H73.8072C74.3365 35.2038 74.5051 35.2822 74.5051 35.4781C74.5051 35.5942 74.4348 35.7295 74.2934 35.9216C74.2903 35.9259 74.2865 35.9303 74.283 35.9342L71.7897 38.5959C71.4708 38.9606 71.1297 38.9228 70.8511 38.6317C70.8472 38.6275 68.4972 36.0666 68.4936 36.062C68.373 35.9069 68.1828 35.7509 68.1828 35.5563C68.1828 35.3213 68.4478 35.2036 69.0737 35.2036H69.5669C69.6345 35.2036 69.6894 35.1488 69.6894 35.0811V33.642C69.6894 33.5744 69.6345 33.5195 69.5669 33.5195H61.1689C61.1012 33.5195 61.0464 33.5744 61.0464 33.642V35.0814C61.0464 35.1489 61.102 35.2036 61.1697 35.2038C63.1844 35.2114 63.0965 35.4172 63.8515 36.3L68.4751 41.4144C68.4955 41.4369 68.5067 41.4661 68.5067 41.4966V44.0541C68.5067 44.7203 68.1694 44.9547 67.2069 44.9547H65.8365C65.7689 44.9547 65.714 45.0095 65.714 45.0772V46.4572C65.714 46.5248 65.7689 46.5797 65.8365 46.5797H75.1481C75.2158 46.5797 75.2706 46.5248 75.2706 46.4572V45.0772C75.2706 45.0095 75.2158 44.9547 75.1481 44.9547H73.7783C72.815 44.9547 72.4781 44.7203 72.4781 44.0541V41.4975C72.4781 41.4666 72.4898 41.4369 72.5108 41.4142C72.5158 41.4089 76.4295 37.1833 76.434 37.1777C77.8751 35.36 78.0684 35.2036 79.1031 35.2036H79.8775C79.9451 35.2036 80 35.1488 80 35.0811V33.642C80 33.5744 79.9451 33.5195 79.8775 33.5195H73.299C73.2314 33.5197 73.1765 33.5745 73.1765 33.6422Z" fill="#C2C5C8"/>
<path d="M15.7652 33.5192C15.8328 33.5192 15.8877 33.574 15.8877 33.6417V38.0959C15.8877 38.1635 15.8328 38.2184 15.7652 38.2184H14.0389C13.9944 38.2184 13.9567 38.186 13.9473 38.1424C13.7595 37.2589 13.1895 36.9001 12.6675 36.4209C9.88937 33.8681 3.65156 34.6713 3.65156 36.5345C3.65156 39.4132 16.655 37.1223 16.655 42.5656C16.655 47.7701 7.02203 47.7845 2.96922 45.6323C2.52016 45.3726 2.375 45.8209 2.28406 46.4314C2.27141 46.5167 2.19766 46.5798 2.11141 46.5798H0.173125C0.105469 46.5798 0.050625 46.525 0.050625 46.4573V41.8462C0.050625 41.7785 0.105469 41.7237 0.173125 41.7237H1.98391C2.07625 41.7237 2.15766 41.7821 2.18953 41.8687C2.60078 42.9828 3.03922 43.2865 3.53812 43.7014C5.86641 45.6376 12.9011 45.7893 12.9011 43.4854C12.9011 42.5065 11.8516 42.2718 8.46984 41.7429L5.59906 41.2734C2.35906 40.7837 0 40.0589 0 37.4745C0 34.7918 2.98422 33.1079 7.70234 33.1079C9.69047 33.1079 11.3547 33.3737 12.9508 34.2763C13.3769 34.5523 13.7308 34.5949 13.7522 33.6374C13.7536 33.5723 13.8056 33.5193 13.8708 33.5193L15.7652 33.5192Z" fill="#C2C5C8"/>
<path d="M28.7967 33.0181C22.8601 33.0181 19.114 35.6809 19.114 39.9104C19.114 39.9254 19.115 39.9399 19.1151 39.9548C19.115 39.9696 19.114 39.9843 19.114 39.9992C19.114 44.2287 22.8601 46.8915 28.7967 46.8915C35.8428 46.8915 38.7696 43.5685 38.7696 40.1256C38.7698 34.9378 34.01 33.0181 28.7967 33.0181ZM28.8435 45.1879C25.6801 45.1879 23.576 43.4251 23.5543 39.9548C23.576 36.4921 25.672 34.7217 28.8435 34.7217C32.337 34.7217 34.2117 36.6154 34.244 39.9548C34.2118 43.2842 32.3473 45.1879 28.8435 45.1879Z" fill="#C2C5C8"/>
<path d="M59.4504 33.6182H52.0802C52.0126 33.6182 51.9577 33.673 51.9577 33.7407V35.121C51.9577 35.1886 52.0126 35.2435 52.0802 35.2435H53.1546C54.1737 35.2435 54.4906 35.4785 54.4906 36.1635V41.1068C54.4898 41.2135 54.3623 41.2682 54.2843 41.1952L46.2368 33.6514C46.2141 33.6302 46.1841 33.6183 46.1531 33.6183H39.486C39.4184 33.6183 39.3635 33.6732 39.3635 33.7408V35.1211C39.3635 35.1888 39.4184 35.2436 39.486 35.2436H40.6738C41.6924 35.2436 42.049 35.4786 42.049 36.1636V44.1522C42.049 44.8185 41.6924 45.0725 40.6738 45.0725H39.486C39.4184 45.0725 39.3635 45.1274 39.3635 45.195V46.5558C39.3635 46.6235 39.4184 46.6783 39.486 46.6783H47.1487C47.2163 46.6783 47.2712 46.6235 47.2712 46.5558V45.195C47.2712 45.1274 47.2163 45.0725 47.1487 45.0725H45.9466C44.9284 45.0725 44.5715 44.8185 44.5715 44.1522V37.7996C44.5715 37.6921 44.7001 37.6368 44.7782 37.7107L54.1879 46.6221C54.2104 46.6433 54.2402 46.6553 54.2712 46.6557L57.0809 46.6774C57.1488 46.6778 57.2043 46.6228 57.2043 46.5549C57.2043 40.4658 57.2043 40.0138 57.2043 36.1636C57.2043 35.4786 57.5609 35.2436 58.5802 35.2436H59.4504C59.5181 35.2436 59.5729 35.1888 59.5729 35.1211V33.7408C59.5729 33.673 59.5181 33.6182 59.4504 33.6182Z" fill="#C2C5C8"/>
<path d="M11.3297 45.8864C14.4154 45.8545 15.4766 45.1397 15.4766 44.1023C15.4766 43.1386 14.569 42.8556 11.7268 42.3706C12.5807 42.632 12.9012 42.9455 12.9012 43.4853C12.9012 45.2495 9.0824 45.307 7.34912 45.08C8.45115 45.5689 9.92428 45.9012 11.3297 45.8864Z" fill="#C2C5C8"/>
<path d="M12.6677 36.4205C13.1897 36.8997 13.7597 37.2585 13.9475 38.1421C13.9567 38.1857 13.9944 38.218 14.0391 38.218H15.7653C15.833 38.218 15.8878 38.1632 15.8878 38.0955V37.2336C15.6852 37.0177 15.4603 36.8283 15.2435 36.6174C14.2761 35.6757 12.1819 34.8916 10.42 34.8916C10.0505 34.8916 9.69065 34.9116 9.34644 34.9494C10.6749 35.2125 11.9671 35.7768 12.6677 36.4205Z" fill="#C2C5C8"/>
<path d="M2.62616 42.7681C2.47647 42.5389 2.33132 42.2524 2.18944 41.8681C2.15741 41.7816 2.07601 41.7231 1.98382 41.7231H0.173037C0.105381 41.7231 0.0505371 41.778 0.0505371 41.8456V46.4567C0.0505371 46.5244 0.105381 46.5792 0.173037 46.5792H2.11147C2.19772 46.5792 2.27147 46.5161 2.28413 46.4308C2.34632 46.0138 2.43382 45.6728 2.62616 45.5813V42.7681Z" fill="#C2C5C8"/>
<path d="M5.59891 41.2732L6.25688 41.3809C4.04531 40.8282 2.57562 39.8948 2.57562 37.7342C2.57562 35.1571 5.02906 33.4499 9.00406 33.154C8.58453 33.1224 8.15203 33.1079 7.70234 33.1079C2.98422 33.1078 0 34.7918 0 37.4745C0 40.0588 2.35906 40.7837 5.59891 41.2732Z" fill="#C2C5C8"/>
<path d="M30.1589 45.0854C30.5532 45.1529 30.9733 45.1879 31.4194 45.1879C34.9128 45.1879 36.7875 43.2942 36.8199 39.9548C36.7877 36.6254 34.9232 34.7217 31.4194 34.7217C30.9733 34.7217 30.5532 34.7567 30.1589 34.8242C32.9322 35.2784 34.2175 37.2075 34.2441 39.955C34.2177 42.684 32.9477 44.6287 30.1589 45.0854Z" fill="#C2C5C8"/>
<path d="M21.6899 39.9992C21.6899 39.9842 21.6908 39.9696 21.691 39.9548C21.6908 39.9399 21.6899 39.9254 21.6899 39.9104C21.6899 35.9893 24.9108 33.4165 30.1105 33.0618C29.6857 33.0346 29.2497 33.0181 28.7969 33.0181C22.8604 33.0181 19.1143 35.6809 19.1143 39.9104C19.1143 39.9254 19.1152 39.9399 19.1154 39.9548C19.1152 39.9696 19.1143 39.9843 19.1143 39.9992C19.1143 44.2287 22.8604 46.8915 28.7969 46.8915C29.2497 46.8915 29.6857 46.8749 30.1105 46.8478C24.9108 46.4931 21.6899 43.9203 21.6899 39.9992Z" fill="#C2C5C8"/>
<path d="M44.5572 45.9668V34.358C44.5572 34.0529 44.5078 33.8099 44.3978 33.6187H39.4863C39.4186 33.6187 39.3638 33.6735 39.3638 33.7412V35.1215C39.3638 35.1891 39.4186 35.244 39.4863 35.244H40.6741C41.6927 35.244 42.0492 35.479 42.0492 36.164V44.1526C42.0492 44.8188 41.6927 45.0729 40.6741 45.0729H39.4863C39.4186 45.0729 39.3638 45.1277 39.3638 45.1954V46.5562C39.3638 46.6238 39.4186 46.6786 39.4863 46.6786H44.4058C44.5097 46.4901 44.5572 46.2557 44.5572 45.9668Z" fill="#C2C5C8"/>
<path d="M71.0508 41.4144L65.6224 35.6561L63.7113 33.5195H61.1691C61.1015 33.5195 61.0466 33.5744 61.0466 33.642V35.0814C61.0466 35.1489 61.1023 35.2036 61.1699 35.2037C63.1846 35.2114 63.0969 35.4172 63.8518 36.3L68.4754 41.4144C68.4957 41.4369 68.5069 41.4661 68.5069 41.4966V44.0541C68.5069 44.7203 68.1696 44.9547 67.2071 44.9547H65.8368C65.7691 44.9547 65.7143 45.0095 65.7143 45.0772V46.4572C65.7143 46.5248 65.7691 46.5797 65.8368 46.5797H71.0787C71.081 46.5441 71.0824 46.5073 71.0824 46.4687V41.4967C71.0824 41.4661 71.0712 41.4369 71.0508 41.4144Z" fill="#C2C5C8"/>
</svg>
