<svg width="50" height="50" viewBox="0 0 50 50" fill="none" xmlns="http://www.w3.org/2000/svg">
<path fill-rule="evenodd" clip-rule="evenodd" d="M50 25C50 38.8071 38.8071 50 25 50C11.1929 50 0 38.8071 0 25C0 11.1929 11.1929 0 25 0C38.8071 0 50 11.1929 50 25ZM35.5438 15.1645L11.4396 24.4583C9.78756 25.1041 9.81672 26.0187 11.1563 26.4437L17.3271 28.3687L31.6417 19.3562C32.3063 18.9145 32.923 19.1645 32.4188 19.6083L20.8355 30.0729L20.3917 36.4333C21.0376 36.4333 21.3188 36.152 21.6521 35.8187L24.6667 32.9145L30.9167 37.5208C32.0563 38.1666 32.8709 37.8333 33.175 36.4624L37.2792 17.127L37.2771 17.1291C37.6396 15.4374 36.6626 14.7604 35.5438 15.1645Z" fill="#EDDAFF" fill-opacity="0.3"/>
</svg>
