<svg width="50" height="50" viewBox="0 0 50 50" fill="none" xmlns="http://www.w3.org/2000/svg">
<path fill-rule="evenodd" clip-rule="evenodd" d="M24.9937 0H25.0063C38.7906 0 50 11.2156 50 25C50 38.7844 38.7906 50 25.0063 50C19.9219 50 15.2063 48.4875 11.2531 45.8688L1.64375 48.9406L4.75938 39.6531C1.7625 35.5375 0 30.4688 0 25C0 11.2125 11.2094 0 24.9937 0ZM34.647 38.8314C36.5564 38.4189 38.9501 37.0064 39.5532 35.3033C40.1564 33.5971 40.1564 32.1439 39.9814 31.8346C39.84 31.5891 39.5059 31.4282 39.0071 31.1881C38.8772 31.1255 38.7362 31.0576 38.5845 30.9814C37.8501 30.6158 34.2782 28.8502 33.6032 28.6158C32.9407 28.3658 32.3095 28.4533 31.8095 29.1596C31.7144 29.2927 31.6195 29.4261 31.5251 29.5588C30.9219 30.4072 30.3401 31.2255 29.8564 31.7471C29.4157 32.2158 28.697 32.2752 28.0939 32.0252C28.0281 31.9978 27.9528 31.9673 27.8683 31.9332C26.9134 31.5476 24.7953 30.6921 22.2313 28.4096C20.0688 26.4846 18.6001 24.0877 18.1751 23.3689C17.7578 22.6479 18.1178 22.2251 18.4504 21.8344C18.4566 21.8271 18.4627 21.8199 18.4688 21.8127C18.6833 21.5473 18.8915 21.3264 19.1006 21.1043C19.2511 20.9446 19.4021 20.7843 19.5564 20.6064C19.5793 20.58 19.6016 20.5544 19.6233 20.5294C19.9508 20.1528 20.1459 19.9285 20.3657 19.4596C20.6157 18.9752 20.4376 18.4752 20.2595 18.1064C20.1369 17.8482 19.3798 16.0112 18.7299 14.4343C18.4518 13.7596 18.1933 13.1325 18.0126 12.6971C17.5282 11.5377 17.1595 11.4939 16.4251 11.4627C16.4026 11.4616 16.3799 11.4604 16.3569 11.4593C16.1248 11.4475 15.8691 11.4346 15.5876 11.4346C14.6313 11.4346 13.6345 11.7158 13.0313 12.3314C13.0103 12.353 12.9883 12.3753 12.9655 12.3985C12.1939 13.1832 10.4751 14.9313 10.4751 18.4158C10.4751 21.9071 12.9523 25.2859 13.4106 25.9111C13.4233 25.9283 13.4344 25.9435 13.4438 25.9564C13.4714 25.9927 13.5234 26.0679 13.5991 26.1775C14.5349 27.5328 19.0933 34.1341 25.8907 36.9502C31.6345 39.3314 33.3407 39.1096 34.647 38.8314Z" fill="#EDDAFF" fill-opacity="0.3"/>
</svg>
