<svg width="80" height="80" viewBox="0 0 80 80" fill="none" xmlns="http://www.w3.org/2000/svg">
<path d="M42.8172 0H37.183H1.96266C0.87875 0 0 0.87875 0 1.96266V78.0373C0 79.1214 0.87875 80 1.96266 80H78.0373C79.1212 80 80 79.1212 80 78.0373V42.8172V37.183V1.96266C80 0.87875 79.1214 0 78.0373 0H42.8172Z" fill="#C2C5C8"/>
<path d="M14.8572 24.4964V55.5038C14.8572 55.7778 15.0794 56.0002 15.3534 56.0002H22.3608C22.6348 56.0002 22.857 55.778 22.857 55.5038V31.3764C22.857 31.1023 23.0792 30.8802 23.3533 30.8802H38.9084C41.9958 30.8802 44.5827 33.5544 44.537 36.5544C44.6261 42.8694 44.547 49.1898 44.5694 55.5052C44.5703 55.7788 44.7927 56 45.0662 56H52.0752C52.3492 56 52.5714 55.7778 52.5714 55.5038L52.577 33.7314C52.577 28.4959 47.9744 24 42.8912 24H15.3534C15.0794 24 14.8572 24.2222 14.8572 24.4964Z" fill="white"/>
<path d="M58.2856 24.4972V55.5046C58.2856 55.7786 58.5078 56.001 58.7821 56.001H65.7894C66.0635 56.001 66.2858 55.7788 66.2858 55.5046V24.4972C66.2858 24.2232 66.0636 24.001 65.7894 24.001H58.7821C58.5078 24.0008 58.2856 24.223 58.2856 24.4972Z" fill="white"/>
<path d="M29.7144 37.068V55.504C29.7144 55.778 29.9365 56.0004 30.2106 56.0004H37.2179C37.492 56.0004 37.7142 55.7782 37.7142 55.504V37.068C37.7142 36.794 37.492 36.5718 37.2179 36.5718H30.2106C29.9365 36.5716 29.7144 36.794 29.7144 37.068Z" fill="white"/>
<path d="M3.3 78.0373V1.96266C3.3 0.87875 4.17875 0 5.26266 0H1.96266C0.87875 0 0 0.87875 0 1.96266V78.0373C0 79.1214 0.87875 80 1.96266 80H5.26266C4.17875 80 3.3 79.1214 3.3 78.0373Z" fill="#C2C5C8"/>
</svg>
